# MagicaVoxel @ Ephtracy

# group
o 

# material
mtllib Tree_1.mtl
usemtl palette

# normals
vn -1 0 0
vn 1 0 0
vn 0 0 1
vn 0 0 -1
vn 0 -1 0
vn 0 1 0

# texcoords
vt 0.396484 0.5
vt 0.771484 0.5
vt 0.841797 0.5

# verts
v -0.5 1.4 0.7
v -0.5 1.4 -0.1
v -0.5 1.6 0.2
v -0.5 1.6 -5.96046e-08
v -0.5 1.8 0.2
v -0.5 1.8 -5.96046e-08
v -0.5 2.5 0.7
v -0.5 2.5 -0.1
v -0.4 1.4 0.8
v -0.4 1.4 0.7
v -0.4 1.4 -0.1
v -0.4 1.4 -0.2
v -0.4 2.5 0.8
v -0.4 2.5 0.7
v -0.4 2.5 -0.1
v -0.4 2.5 -0.2
v -0.4 2.6 0.7
v -0.4 2.6 -0.1
v -0.3 1.3 0.6
v -0.3 1.3 -5.96046e-08
v -0.3 1.4 0.6
v -0.3 1.4 -5.96046e-08
v -0.1 0 0.4
v -0.1 0 0.2
v -0.1 1.3 0.4
v -0.1 1.3 0.2
v 0.1 0 0.4
v 0.1 0 0.2
v 0.1 1.3 0.4
v 0.1 1.3 0.2
v 0.3 1.3 0.6
v 0.3 1.3 -5.96046e-08
v 0.3 1.4 0.6
v 0.3 1.4 -5.96046e-08
v 0.4 1.4 0.8
v 0.4 1.4 0.7
v 0.4 1.4 -0.1
v 0.4 1.4 -0.2
v 0.4 2.5 0.8
v 0.4 2.5 0.7
v 0.4 2.5 -0.1
v 0.4 2.5 -0.2
v 0.4 2.6 0.7
v 0.4 2.6 -0.1
v 0.5 1.4 0.7
v 0.5 1.4 -0.1
v 0.5 1.7 0.6
v 0.5 1.7 0.4
v 0.5 1.9 0.6
v 0.5 1.9 0.4
v 0.5 2.1 0.3
v 0.5 2.1 0.1
v 0.5 2.3 0.3
v 0.5 2.3 0.1
v 0.5 2.5 0.7
v 0.5 2.5 -0.1
v -0.4 1.4 0.8
v -0.4 2.5 0.8
v -0.2 2.1 0.8
v -0.2 2.3 0.8
v 0 2.1 0.8
v 0 2.3 0.8
v 0.4 1.4 0.8
v 0.4 2.5 0.8
v -0.5 1.4 0.7
v -0.5 2.5 0.7
v -0.4 1.4 0.7
v -0.4 2.5 0.7
v -0.4 2.6 0.7
v 0.4 1.4 0.7
v 0.4 2.5 0.7
v 0.4 2.6 0.7
v 0.5 1.4 0.7
v 0.5 2.5 0.7
v -0.3 1.3 0.6
v -0.3 1.4 0.6
v 0.3 1.3 0.6
v 0.3 1.4 0.6
v -0.1 0 0.4
v -0.1 1.3 0.4
v 0.1 0 0.4
v 0.1 1.3 0.4
v -0.1 0 0.2
v -0.1 1.3 0.2
v 0.1 0 0.2
v 0.1 1.3 0.2
v -0.3 1.3 -5.96046e-08
v -0.3 1.4 -5.96046e-08
v 0.3 1.3 -5.96046e-08
v 0.3 1.4 -5.96046e-08
v -0.5 1.4 -0.1
v -0.5 2.5 -0.1
v -0.4 1.4 -0.1
v -0.4 2.5 -0.1
v -0.4 2.6 -0.1
v 0.4 1.4 -0.1
v 0.4 2.5 -0.1
v 0.4 2.6 -0.1
v 0.5 1.4 -0.1
v 0.5 2.5 -0.1
v -0.4 1.4 -0.2
v -0.4 2.5 -0.2
v -0.2 1.6 -0.2
v -0.2 1.8 -0.2
v 0 1.6 -0.2
v 0 1.8 -0.2
v 0.4 1.4 -0.2
v 0.4 2.5 -0.2
v -0.1 0 0.4
v 0.1 0 0.4
v -0.1 0 0.2
v 0.1 0 0.2
v -0.3 1.3 0.6
v 0.3 1.3 0.6
v -0.1 1.3 0.4
v 0.1 1.3 0.4
v -0.1 1.3 0.2
v 0.1 1.3 0.2
v -0.3 1.3 -5.96046e-08
v 0.3 1.3 -5.96046e-08
v -0.4 1.4 0.8
v 0.4 1.4 0.8
v -0.5 1.4 0.7
v -0.4 1.4 0.7
v 0.4 1.4 0.7
v 0.5 1.4 0.7
v -0.3 1.4 0.6
v 0.3 1.4 0.6
v -0.3 1.4 -5.96046e-08
v 0.3 1.4 -5.96046e-08
v -0.5 1.4 -0.1
v -0.4 1.4 -0.1
v 0.4 1.4 -0.1
v 0.5 1.4 -0.1
v -0.4 1.4 -0.2
v 0.4 1.4 -0.2
v -0.4 2.5 0.8
v 0.4 2.5 0.8
v -0.5 2.5 0.7
v -0.4 2.5 0.7
v 0.4 2.5 0.7
v 0.5 2.5 0.7
v -0.5 2.5 -0.1
v -0.4 2.5 -0.1
v 0.4 2.5 -0.1
v 0.5 2.5 -0.1
v -0.4 2.5 -0.2
v 0.4 2.5 -0.2
v -0.4 2.6 0.7
v 0.4 2.6 0.7
v -0.4 2.6 -0.1
v 0.4 2.6 -0.1

# faces
f 3/2/1 2/2/1 1/2/1
f 4/2/1 2/2/1 3/2/1
f 5/2/1 3/2/1 1/2/1
f 5/3/1 4/3/1 3/3/1
f 6/2/1 2/2/1 4/2/1
f 6/3/1 4/3/1 5/3/1
f 7/2/1 5/2/1 1/2/1
f 7/2/1 6/2/1 5/2/1
f 8/2/1 2/2/1 6/2/1
f 8/2/1 6/2/1 7/2/1
f 13/2/1 10/2/1 9/2/1
f 14/2/1 10/2/1 13/2/1
f 15/2/1 12/2/1 11/2/1
f 16/2/1 12/2/1 15/2/1
f 17/2/1 15/2/1 14/2/1
f 18/2/1 15/2/1 17/2/1
f 21/2/1 20/2/1 19/2/1
f 22/2/1 20/2/1 21/2/1
f 25/1/1 24/1/1 23/1/1
f 26/1/1 24/1/1 25/1/1
f 27/1/2 28/1/2 29/1/2
f 29/1/2 28/1/2 30/1/2
f 31/2/2 32/2/2 33/2/2
f 33/2/2 32/2/2 34/2/2
f 35/2/2 36/2/2 39/2/2
f 39/2/2 36/2/2 40/2/2
f 37/2/2 38/2/2 41/2/2
f 41/2/2 38/2/2 42/2/2
f 40/2/2 41/2/2 43/2/2
f 43/2/2 41/2/2 44/2/2
f 45/2/2 46/2/2 47/2/2
f 47/2/2 46/2/2 48/2/2
f 45/2/2 47/2/2 49/2/2
f 47/3/2 48/3/2 49/3/2
f 48/2/2 46/2/2 50/2/2
f 49/3/2 48/3/2 50/3/2
f 49/2/2 50/2/2 51/2/2
f 50/2/2 46/2/2 51/2/2
f 51/2/2 46/2/2 52/2/2
f 49/2/2 51/2/2 53/2/2
f 51/3/2 52/3/2 53/3/2
f 52/2/2 46/2/2 54/2/2
f 53/3/2 52/3/2 54/3/2
f 45/2/2 49/2/2 55/2/2
f 49/2/2 53/2/2 55/2/2
f 53/2/2 54/2/2 55/2/2
f 54/2/2 46/2/2 56/2/2
f 55/2/2 54/2/2 56/2/2
f 59/2/3 58/2/3 57/2/3
f 60/2/3 58/2/3 59/2/3
f 61/2/3 59/2/3 57/2/3
f 61/3/3 60/3/3 59/3/3
f 62/2/3 58/2/3 60/2/3
f 62/3/3 60/3/3 61/3/3
f 63/2/3 61/2/3 57/2/3
f 63/2/3 62/2/3 61/2/3
f 64/2/3 58/2/3 62/2/3
f 64/2/3 62/2/3 63/2/3
f 67/2/3 66/2/3 65/2/3
f 68/2/3 66/2/3 67/2/3
f 71/2/3 69/2/3 68/2/3
f 72/2/3 69/2/3 71/2/3
f 73/2/3 71/2/3 70/2/3
f 74/2/3 71/2/3 73/2/3
f 77/2/3 76/2/3 75/2/3
f 78/2/3 76/2/3 77/2/3
f 81/1/3 80/1/3 79/1/3
f 82/1/3 80/1/3 81/1/3
f 83/1/4 84/1/4 85/1/4
f 85/1/4 84/1/4 86/1/4
f 87/2/4 88/2/4 89/2/4
f 89/2/4 88/2/4 90/2/4
f 91/2/4 92/2/4 93/2/4
f 93/2/4 92/2/4 94/2/4
f 94/2/4 95/2/4 97/2/4
f 97/2/4 95/2/4 98/2/4
f 96/2/4 97/2/4 99/2/4
f 99/2/4 97/2/4 100/2/4
f 101/2/4 102/2/4 103/2/4
f 103/2/4 102/2/4 104/2/4
f 101/2/4 103/2/4 105/2/4
f 103/3/4 104/3/4 105/3/4
f 104/2/4 102/2/4 106/2/4
f 105/3/4 104/3/4 106/3/4
f 101/2/4 105/2/4 107/2/4
f 105/2/4 106/2/4 107/2/4
f 106/2/4 102/2/4 108/2/4
f 107/2/4 106/2/4 108/2/4
f 111/1/5 110/1/5 109/1/5
f 112/1/5 110/1/5 111/1/5
f 115/2/5 114/2/5 113/2/5
f 116/2/5 114/2/5 115/2/5
f 117/2/5 115/2/5 113/2/5
f 118/2/5 114/2/5 116/2/5
f 119/2/5 117/2/5 113/2/5
f 119/2/5 118/2/5 117/2/5
f 120/2/5 114/2/5 118/2/5
f 120/2/5 118/2/5 119/2/5
f 124/2/5 122/2/5 121/2/5
f 125/2/5 122/2/5 124/2/5
f 127/2/5 124/2/5 123/2/5
f 127/2/5 126/2/5 125/2/5
f 127/2/5 125/2/5 124/2/5
f 128/2/5 126/2/5 127/2/5
f 129/2/5 127/2/5 123/2/5
f 130/2/5 126/2/5 128/2/5
f 131/2/5 129/2/5 123/2/5
f 131/2/5 130/2/5 129/2/5
f 132/2/5 130/2/5 131/2/5
f 133/2/5 126/2/5 130/2/5
f 133/2/5 130/2/5 132/2/5
f 134/2/5 126/2/5 133/2/5
f 135/2/5 133/2/5 132/2/5
f 136/2/5 133/2/5 135/2/5
f 137/2/6 138/2/6 140/2/6
f 140/2/6 138/2/6 141/2/6
f 139/2/6 140/2/6 143/2/6
f 143/2/6 140/2/6 144/2/6
f 141/2/6 142/2/6 145/2/6
f 145/2/6 142/2/6 146/2/6
f 144/2/6 145/2/6 147/2/6
f 147/2/6 145/2/6 148/2/6
f 149/2/6 150/2/6 151/2/6
f 151/2/6 150/2/6 152/2/6
