# MagicaVoxel @ Ephtracy

# group
o Cactus

# material
mtllib obs-0-Kamen-2-Cactus.mtl
usemtl palette

# normals
vn -1 0 0
vn 1 0 0
vn 0 0 1
vn 0 0 -1
vn 0 -1 0
vn 0 1 0

# texcoords
vt 0.748047 0.5
vt 0.794922 0.5

# verts
v -1 1.1 6.4
v -1 1.1 6.3
v -1 1.2 6.4
v -1 1.2 6.3
v -1 1.6 6.4
v -1 1.6 6.3
v -1 1.7 6.4
v -1 1.7 6.3
v -0.9 1 6.5
v -0.9 1 6.2
v -0.9 1.1 6.4
v -0.9 1.1 6.3
v -0.9 1.2 6.4
v -0.9 1.2 6.3
v -0.9 1.6 6.4
v -0.9 1.6 6.3
v -0.9 1.7 6.4
v -0.9 1.7 6.3
v -0.9 2 6.5
v -0.9 2 6.2
v -0.8 0.9 6.5
v -0.8 0.9 6.2
v -0.8 1 6.5
v -0.8 1 6.2
v -0.8 1.2 6.6
v -0.8 1.2 6.5
v -0.8 1.3 6.6
v -0.8 1.3 6.5
v -0.8 1.3 6.2
v -0.8 1.3 6.1
v -0.8 1.4 6.2
v -0.8 1.4 6.1
v -0.8 2 6.4
v -0.8 2 6.3
v -0.8 2.1 6.4
v -0.8 2.1 6.3
v -0.7 0.8 6.5
v -0.7 0.8 6.2
v -0.7 0.9 6.5
v -0.7 0.9 6.2
v -0.7 1.6 6.2
v -0.7 1.6 6.1
v -0.7 1.7 6.2
v -0.7 1.7 6.1
v -0.4 0.4 6.4
v -0.4 0.4 6.3
v -0.4 0.5 6.4
v -0.4 0.5 6.3
v -0.4 1.5 6.5
v -0.4 1.5 6.4
v -0.4 1.6 6.5
v -0.4 1.6 6.4
v -0.4 1.9 6.3
v -0.4 1.9 6.2
v -0.4 2 6.3
v -0.4 2 6.2
v -0.3 0 6.5
v -0.3 0 6.2
v -0.3 0.3 6.2
v -0.3 0.3 6.1
v -0.3 0.4 6.4
v -0.3 0.4 6.3
v -0.3 0.4 6.2
v -0.3 0.4 6.1
v -0.3 0.5 6.4
v -0.3 0.5 6.3
v -0.3 0.8 6.5
v -0.3 0.8 6.2
v -0.3 1.1 6.5
v -0.3 1.1 6.2
v -0.3 1.2 6.6
v -0.3 1.2 6.5
v -0.3 1.3 6.6
v -0.3 1.3 6.5
v -0.3 1.5 6.5
v -0.3 1.5 6.4
v -0.3 1.6 6.5
v -0.3 1.6 6.4
v -0.3 1.9 6.3
v -0.3 1.9 6.2
v -0.3 2 6.3
v -0.3 2 6.2
v -0.3 2.2 6.6
v -0.3 2.2 6.5
v -0.3 2.2 6.2
v -0.3 2.2 6.1
v -0.3 2.3 6.6
v -0.3 2.3 6.5
v -0.3 2.3 6.2
v -0.3 2.3 6.1
v -0.3 2.5 6.5
v -0.3 2.5 6.2
v -0.2 0.7 6.6
v -0.2 0.7 6.5
v -0.2 0.8 6.6
v -0.2 0.8 6.5
v -0.2 1.3 6.2
v -0.2 1.3 6.1
v -0.2 1.4 6.2
v -0.2 1.4 6.1
v -0.2 2.5 6.4
v -0.2 2.5 6.3
v -0.2 2.6 6.4
v -0.2 2.6 6.3
v -0.1 0.8 6.2
v -0.1 0.8 6.1
v -0.1 0.9 6.2
v -0.1 0.9 6.1
v -0.1 1.7 6.6
v -0.1 1.7 6.5
v -0.1 1.8 6.6
v -0.1 1.8 6.5
v -0.1 1.8 6.2
v -0.1 1.8 6.1
v -0.1 1.9 6.2
v -0.1 1.9 6.1
v 0.2 1.8 6.5
v 0.2 1.8 6.2
v 0.2 2.2 6.6
v 0.2 2.2 6.5
v 0.2 2.3 6.6
v 0.2 2.3 6.5
v 0.2 2.3 6.2
v 0.3 1.8 6.2
v 0.3 1.8 6.1
v 0.3 1.9 6.2
v 0.3 1.9 6.1
v 0.3 2 6.6
v 0.3 2 6.5
v 0.3 2.1 6.6
v 0.3 2.1 6.5
v 0.3 2.3 6.4
v 0.3 2.3 6.3
v 0.3 2.4 6.4
v 0.3 2.4 6.3
v -0.7 1.2 6.6
v -0.7 1.2 6.5
v -0.7 1.3 6.6
v -0.7 1.3 6.5
v -0.7 1.3 6.2
v -0.7 1.3 6.1
v -0.7 1.4 6.2
v -0.7 1.4 6.1
v -0.7 2 6.4
v -0.7 2 6.3
v -0.7 2.1 6.4
v -0.7 2.1 6.3
v -0.6 1.1 6.5
v -0.6 1.1 6.2
v -0.6 1.6 6.2
v -0.6 1.6 6.1
v -0.6 1.7 6.2
v -0.6 1.7 6.1
v -0.6 2 6.5
v -0.6 2 6.2
v -0.2 0.3 6.2
v -0.2 0.3 6.1
v -0.2 0.4 6.2
v -0.2 0.4 6.1
v -0.2 1.2 6.6
v -0.2 1.2 6.5
v -0.2 1.3 6.6
v -0.2 1.3 6.5
v -0.2 2.2 6.6
v -0.2 2.2 6.5
v -0.2 2.2 6.2
v -0.2 2.2 6.1
v -0.2 2.3 6.6
v -0.2 2.3 6.5
v -0.2 2.3 6.2
v -0.2 2.3 6.1
v -0.1 0.7 6.6
v -0.1 0.7 6.5
v -0.1 0.8 6.6
v -0.1 0.8 6.5
v -0.1 1.3 6.2
v -0.1 1.3 6.1
v -0.1 1.4 6.2
v -0.1 1.4 6.1
v -0.1 2.5 6.4
v -0.1 2.5 6.3
v -0.1 2.6 6.4
v -0.1 2.6 6.3
v 0 0 6.5
v 0 0 6.2
v 0 0.2 6.4
v 0 0.2 6.3
v 0 0.3 6.4
v 0 0.3 6.3
v 0 0.8 6.2
v 0 0.8 6.1
v 0 0.9 6.2
v 0 0.9 6.1
v 0 1 6.5
v 0 1 6.4
v 0 1.1 6.5
v 0 1.1 6.4
v 0 1.5 6.5
v 0 1.5 6.2
v 0 1.7 6.6
v 0 1.7 6.5
v 0 1.8 6.6
v 0 1.8 6.5
v 0 1.8 6.2
v 0 1.8 6.1
v 0 1.9 6.2
v 0 1.9 6.1
v 0 2.5 6.5
v 0 2.5 6.2
v 0.1 0.2 6.4
v 0.1 0.2 6.3
v 0.1 0.3 6.4
v 0.1 0.3 6.3
v 0.1 1 6.5
v 0.1 1 6.4
v 0.1 1.1 6.5
v 0.1 1.1 6.4
v 0.3 1.5 6.5
v 0.3 1.5 6.2
v 0.3 1.6 6.5
v 0.3 1.6 6.2
v 0.3 2.2 6.6
v 0.3 2.2 6.5
v 0.3 2.3 6.6
v 0.3 2.3 6.5
v 0.4 1.6 6.5
v 0.4 1.6 6.2
v 0.4 1.7 6.5
v 0.4 1.7 6.2
v 0.4 1.8 6.2
v 0.4 1.8 6.1
v 0.4 1.9 6.2
v 0.4 1.9 6.1
v 0.4 2 6.6
v 0.4 2 6.5
v 0.4 2.1 6.6
v 0.4 2.1 6.5
v 0.4 2.3 6.4
v 0.4 2.3 6.3
v 0.4 2.4 6.4
v 0.4 2.4 6.3
v 0.5 1.7 6.5
v 0.5 1.7 6.2
v 0.5 1.8 6.4
v 0.5 1.8 6.3
v 0.5 1.9 6.4
v 0.5 1.9 6.3
v 0.5 2.1 6.3
v 0.5 2.1 6.2
v 0.5 2.2 6.3
v 0.5 2.2 6.2
v 0.5 2.3 6.5
v 0.5 2.3 6.2
v 0.6 1.8 6.4
v 0.6 1.8 6.3
v 0.6 1.9 6.4
v 0.6 1.9 6.3
v 0.6 2.1 6.3
v 0.6 2.1 6.2
v 0.6 2.2 6.3
v 0.6 2.2 6.2
v -0.8 1.2 6.6
v -0.8 1.3 6.6
v -0.7 1.2 6.6
v -0.7 1.3 6.6
v -0.3 1.2 6.6
v -0.3 1.3 6.6
v -0.3 2.2 6.6
v -0.3 2.3 6.6
v -0.2 0.7 6.6
v -0.2 0.8 6.6
v -0.2 1.2 6.6
v -0.2 1.3 6.6
v -0.2 2.2 6.6
v -0.2 2.3 6.6
v -0.1 0.7 6.6
v -0.1 0.8 6.6
v -0.1 1.7 6.6
v -0.1 1.8 6.6
v 0 1.7 6.6
v 0 1.8 6.6
v 0.2 2.2 6.6
v 0.2 2.3 6.6
v 0.3 2 6.6
v 0.3 2.1 6.6
v 0.3 2.2 6.6
v 0.3 2.3 6.6
v 0.4 2 6.6
v 0.4 2.1 6.6
v -0.9 1 6.5
v -0.9 2 6.5
v -0.8 0.9 6.5
v -0.8 1 6.5
v -0.8 1.2 6.5
v -0.8 1.3 6.5
v -0.7 0.8 6.5
v -0.7 0.9 6.5
v -0.7 1.2 6.5
v -0.7 1.3 6.5
v -0.6 1.1 6.5
v -0.6 2 6.5
v -0.4 1.5 6.5
v -0.4 1.6 6.5
v -0.3 0 6.5
v -0.3 0.8 6.5
v -0.3 1.1 6.5
v -0.3 1.2 6.5
v -0.3 1.3 6.5
v -0.3 1.5 6.5
v -0.3 1.6 6.5
v -0.3 2.2 6.5
v -0.3 2.3 6.5
v -0.3 2.5 6.5
v -0.2 0.7 6.5
v -0.2 0.8 6.5
v -0.2 1.2 6.5
v -0.2 1.3 6.5
v -0.2 2.2 6.5
v -0.2 2.3 6.5
v -0.1 0.7 6.5
v -0.1 0.8 6.5
v -0.1 1.7 6.5
v -0.1 1.8 6.5
v 0 0 6.5
v 0 1 6.5
v 0 1.1 6.5
v 0 1.5 6.5
v 0 1.7 6.5
v 0 1.8 6.5
v 0 2.5 6.5
v 0.1 1 6.5
v 0.1 1.1 6.5
v 0.2 1.8 6.5
v 0.2 2.2 6.5
v 0.3 1.5 6.5
v 0.3 1.6 6.5
v 0.3 2 6.5
v 0.3 2.1 6.5
v 0.3 2.2 6.5
v 0.3 2.3 6.5
v 0.4 1.6 6.5
v 0.4 1.7 6.5
v 0.4 2 6.5
v 0.4 2.1 6.5
v 0.5 1.7 6.5
v 0.5 2.3 6.5
v -1 1.1 6.4
v -1 1.2 6.4
v -1 1.6 6.4
v -1 1.7 6.4
v -0.9 1.1 6.4
v -0.9 1.2 6.4
v -0.9 1.6 6.4
v -0.9 1.7 6.4
v -0.8 2 6.4
v -0.8 2.1 6.4
v -0.7 2 6.4
v -0.7 2.1 6.4
v -0.4 0.4 6.4
v -0.4 0.5 6.4
v -0.3 0.4 6.4
v -0.3 0.5 6.4
v -0.2 2.5 6.4
v -0.2 2.6 6.4
v -0.1 2.5 6.4
v -0.1 2.6 6.4
v 0 0.2 6.4
v 0 0.3 6.4
v 0.1 0.2 6.4
v 0.1 0.3 6.4
v 0.3 2.3 6.4
v 0.3 2.4 6.4
v 0.4 2.3 6.4
v 0.4 2.4 6.4
v 0.5 1.8 6.4
v 0.5 1.9 6.4
v 0.6 1.8 6.4
v 0.6 1.9 6.4
v -0.4 1.9 6.3
v -0.4 2 6.3
v -0.3 1.9 6.3
v -0.3 2 6.3
v 0.5 2.1 6.3
v 0.5 2.2 6.3
v 0.6 2.1 6.3
v 0.6 2.2 6.3
v -0.4 1.5 6.4
v -0.4 1.6 6.4
v -0.3 1.5 6.4
v -0.3 1.6 6.4
v 0 1 6.4
v 0 1.1 6.4
v 0.1 1 6.4
v 0.1 1.1 6.4
v -1 1.1 6.3
v -1 1.2 6.3
v -1 1.6 6.3
v -1 1.7 6.3
v -0.9 1.1 6.3
v -0.9 1.2 6.3
v -0.9 1.6 6.3
v -0.9 1.7 6.3
v -0.8 2 6.3
v -0.8 2.1 6.3
v -0.7 2 6.3
v -0.7 2.1 6.3
v -0.4 0.4 6.3
v -0.4 0.5 6.3
v -0.3 0.4 6.3
v -0.3 0.5 6.3
v -0.2 2.5 6.3
v -0.2 2.6 6.3
v -0.1 2.5 6.3
v -0.1 2.6 6.3
v 0 0.2 6.3
v 0 0.3 6.3
v 0.1 0.2 6.3
v 0.1 0.3 6.3
v 0.3 2.3 6.3
v 0.3 2.4 6.3
v 0.4 2.3 6.3
v 0.4 2.4 6.3
v 0.5 1.8 6.3
v 0.5 1.9 6.3
v 0.6 1.8 6.3
v 0.6 1.9 6.3
v -0.9 1 6.2
v -0.9 2 6.2
v -0.8 0.9 6.2
v -0.8 1 6.2
v -0.8 1.3 6.2
v -0.8 1.4 6.2
v -0.7 0.8 6.2
v -0.7 0.9 6.2
v -0.7 1.3 6.2
v -0.7 1.4 6.2
v -0.7 1.6 6.2
v -0.7 1.7 6.2
v -0.6 1.1 6.2
v -0.6 1.6 6.2
v -0.6 1.7 6.2
v -0.6 2 6.2
v -0.4 1.9 6.2
v -0.4 2 6.2
v -0.3 0 6.2
v -0.3 0.3 6.2
v -0.3 0.4 6.2
v -0.3 0.8 6.2
v -0.3 1.1 6.2
v -0.3 1.9 6.2
v -0.3 2 6.2
v -0.3 2.2 6.2
v -0.3 2.3 6.2
v -0.3 2.5 6.2
v -0.2 0.3 6.2
v -0.2 0.4 6.2
v -0.2 1.3 6.2
v -0.2 1.4 6.2
v -0.2 2.2 6.2
v -0.2 2.3 6.2
v -0.1 0.8 6.2
v -0.1 0.9 6.2
v -0.1 1.3 6.2
v -0.1 1.4 6.2
v -0.1 1.8 6.2
v -0.1 1.9 6.2
v 0 0 6.2
v 0 0.8 6.2
v 0 0.9 6.2
v 0 1.5 6.2
v 0 1.8 6.2
v 0 1.9 6.2
v 0 2.5 6.2
v 0.2 1.8 6.2
v 0.2 2.3 6.2
v 0.3 1.5 6.2
v 0.3 1.6 6.2
v 0.3 1.8 6.2
v 0.3 1.9 6.2
v 0.4 1.6 6.2
v 0.4 1.7 6.2
v 0.4 1.8 6.2
v 0.4 1.9 6.2
v 0.5 1.7 6.2
v 0.5 2.1 6.2
v 0.5 2.2 6.2
v 0.5 2.3 6.2
v 0.6 2.1 6.2
v 0.6 2.2 6.2
v -0.8 1.3 6.1
v -0.8 1.4 6.1
v -0.7 1.3 6.1
v -0.7 1.4 6.1
v -0.7 1.6 6.1
v -0.7 1.7 6.1
v -0.6 1.6 6.1
v -0.6 1.7 6.1
v -0.3 0.3 6.1
v -0.3 0.4 6.1
v -0.3 2.2 6.1
v -0.3 2.3 6.1
v -0.2 0.3 6.1
v -0.2 0.4 6.1
v -0.2 1.3 6.1
v -0.2 1.4 6.1
v -0.2 2.2 6.1
v -0.2 2.3 6.1
v -0.1 0.8 6.1
v -0.1 0.9 6.1
v -0.1 1.3 6.1
v -0.1 1.4 6.1
v -0.1 1.8 6.1
v -0.1 1.9 6.1
v 0 0.8 6.1
v 0 0.9 6.1
v 0 1.8 6.1
v 0 1.9 6.1
v 0.3 1.8 6.1
v 0.3 1.9 6.1
v 0.4 1.8 6.1
v 0.4 1.9 6.1
v -0.3 0 6.5
v 0 0 6.5
v -0.3 0 6.2
v 0 0 6.2
v 0 0.2 6.4
v 0.1 0.2 6.4
v 0 0.2 6.3
v 0.1 0.2 6.3
v -0.3 0.3 6.2
v -0.2 0.3 6.2
v -0.3 0.3 6.1
v -0.2 0.3 6.1
v -0.4 0.4 6.4
v -0.3 0.4 6.4
v -0.4 0.4 6.3
v -0.3 0.4 6.3
v -0.2 0.7 6.6
v -0.1 0.7 6.6
v -0.2 0.7 6.5
v -0.1 0.7 6.5
v -0.7 0.8 6.5
v -0.3 0.8 6.5
v -0.7 0.8 6.2
v -0.3 0.8 6.2
v -0.1 0.8 6.2
v 0 0.8 6.2
v -0.1 0.8 6.1
v 0 0.8 6.1
v -0.8 0.9 6.5
v -0.7 0.9 6.5
v -0.8 0.9 6.2
v -0.7 0.9 6.2
v -0.9 1 6.5
v -0.8 1 6.5
v 0 1 6.5
v 0.1 1 6.5
v 0 1 6.4
v 0.1 1 6.4
v -0.9 1 6.2
v -0.8 1 6.2
v -1 1.1 6.4
v -0.9 1.1 6.4
v -1 1.1 6.3
v -0.9 1.1 6.3
v -0.8 1.2 6.6
v -0.7 1.2 6.6
v -0.3 1.2 6.6
v -0.2 1.2 6.6
v -0.8 1.2 6.5
v -0.7 1.2 6.5
v -0.3 1.2 6.5
v -0.2 1.2 6.5
v -0.8 1.3 6.2
v -0.7 1.3 6.2
v -0.2 1.3 6.2
v -0.1 1.3 6.2
v -0.8 1.3 6.1
v -0.7 1.3 6.1
v -0.2 1.3 6.1
v -0.1 1.3 6.1
v -0.4 1.5 6.5
v -0.3 1.5 6.5
v 0 1.5 6.5
v 0.3 1.5 6.5
v -0.4 1.5 6.4
v -0.3 1.5 6.4
v 0 1.5 6.2
v 0.3 1.5 6.2
v 0.3 1.6 6.5
v 0.4 1.6 6.5
v -1 1.6 6.4
v -0.9 1.6 6.4
v -1 1.6 6.3
v -0.9 1.6 6.3
v -0.7 1.6 6.2
v -0.6 1.6 6.2
v 0.3 1.6 6.2
v 0.4 1.6 6.2
v -0.7 1.6 6.1
v -0.6 1.6 6.1
v -0.1 1.7 6.6
v 0 1.7 6.6
v -0.1 1.7 6.5
v 0 1.7 6.5
v 0.4 1.7 6.5
v 0.5 1.7 6.5
v 0.4 1.7 6.2
v 0.5 1.7 6.2
v 0.5 1.8 6.4
v 0.6 1.8 6.4
v 0.5 1.8 6.3
v 0.6 1.8 6.3
v -0.1 1.8 6.2
v 0 1.8 6.2
v 0.3 1.8 6.2
v 0.4 1.8 6.2
v -0.1 1.8 6.1
v 0 1.8 6.1
v 0.3 1.8 6.1
v 0.4 1.8 6.1
v -0.4 1.9 6.3
v -0.3 1.9 6.3
v -0.4 1.9 6.2
v -0.3 1.9 6.2
v 0.3 2 6.6
v 0.4 2 6.6
v 0.3 2 6.5
v 0.4 2 6.5
v 0.5 2.1 6.3
v 0.6 2.1 6.3
v 0.5 2.1 6.2
v 0.6 2.1 6.2
v -0.3 2.2 6.6
v -0.2 2.2 6.6
v 0.2 2.2 6.6
v 0.3 2.2 6.6
v -0.3 2.2 6.5
v -0.2 2.2 6.5
v 0.2 2.2 6.5
v 0.3 2.2 6.5
v -0.3 2.2 6.2
v -0.2 2.2 6.2
v -0.3 2.2 6.1
v -0.2 2.2 6.1
v 0 0.3 6.4
v 0.1 0.3 6.4
v 0 0.3 6.3
v 0.1 0.3 6.3
v -0.3 0.4 6.2
v -0.2 0.4 6.2
v -0.3 0.4 6.1
v -0.2 0.4 6.1
v -0.4 0.5 6.4
v -0.3 0.5 6.4
v -0.4 0.5 6.3
v -0.3 0.5 6.3
v -0.2 0.8 6.6
v -0.1 0.8 6.6
v -0.2 0.8 6.5
v -0.1 0.8 6.5
v -0.1 0.9 6.2
v 0 0.9 6.2
v -0.1 0.9 6.1
v 0 0.9 6.1
v -0.6 1.1 6.5
v -0.3 1.1 6.5
v 0 1.1 6.5
v 0.1 1.1 6.5
v 0 1.1 6.4
v 0.1 1.1 6.4
v -0.6 1.1 6.2
v -0.3 1.1 6.2
v -1 1.2 6.4
v -0.9 1.2 6.4
v -1 1.2 6.3
v -0.9 1.2 6.3
v -0.8 1.3 6.6
v -0.7 1.3 6.6
v -0.3 1.3 6.6
v -0.2 1.3 6.6
v -0.8 1.3 6.5
v -0.7 1.3 6.5
v -0.3 1.3 6.5
v -0.2 1.3 6.5
v -0.8 1.4 6.2
v -0.7 1.4 6.2
v -0.2 1.4 6.2
v -0.1 1.4 6.2
v -0.8 1.4 6.1
v -0.7 1.4 6.1
v -0.2 1.4 6.1
v -0.1 1.4 6.1
v -0.4 1.6 6.5
v -0.3 1.6 6.5
v -0.4 1.6 6.4
v -0.3 1.6 6.4
v -1 1.7 6.4
v -0.9 1.7 6.4
v -1 1.7 6.3
v -0.9 1.7 6.3
v -0.7 1.7 6.2
v -0.6 1.7 6.2
v -0.7 1.7 6.1
v -0.6 1.7 6.1
v -0.1 1.8 6.6
v 0 1.8 6.6
v -0.1 1.8 6.5
v 0 1.8 6.5
v 0.2 1.8 6.5
v 0 1.8 6.2
v 0.2 1.8 6.2
v 0.5 1.9 6.4
v 0.6 1.9 6.4
v 0.5 1.9 6.3
v 0.6 1.9 6.3
v -0.1 1.9 6.2
v 0 1.9 6.2
v 0.3 1.9 6.2
v 0.4 1.9 6.2
v -0.1 1.9 6.1
v 0 1.9 6.1
v 0.3 1.9 6.1
v 0.4 1.9 6.1
v -0.9 2 6.5
v -0.6 2 6.5
v -0.8 2 6.4
v -0.7 2 6.4
v -0.8 2 6.3
v -0.7 2 6.3
v -0.4 2 6.3
v -0.3 2 6.3
v -0.9 2 6.2
v -0.6 2 6.2
v -0.4 2 6.2
v -0.3 2 6.2
v 0.3 2.1 6.6
v 0.4 2.1 6.6
v 0.3 2.1 6.5
v 0.4 2.1 6.5
v -0.8 2.1 6.4
v -0.7 2.1 6.4
v -0.8 2.1 6.3
v -0.7 2.1 6.3
v 0.5 2.2 6.3
v 0.6 2.2 6.3
v 0.5 2.2 6.2
v 0.6 2.2 6.2
v -0.3 2.3 6.6
v -0.2 2.3 6.6
v 0.2 2.3 6.6
v 0.3 2.3 6.6
v -0.3 2.3 6.5
v -0.2 2.3 6.5
v 0.2 2.3 6.5
v 0.3 2.3 6.5
v 0.5 2.3 6.5
v 0.3 2.3 6.4
v 0.4 2.3 6.4
v 0.3 2.3 6.3
v 0.4 2.3 6.3
v -0.3 2.3 6.2
v -0.2 2.3 6.2
v 0.2 2.3 6.2
v 0.5 2.3 6.2
v -0.3 2.3 6.1
v -0.2 2.3 6.1
v 0.3 2.4 6.4
v 0.4 2.4 6.4
v 0.3 2.4 6.3
v 0.4 2.4 6.3
v -0.3 2.5 6.5
v 0 2.5 6.5
v -0.2 2.5 6.4
v -0.1 2.5 6.4
v -0.2 2.5 6.3
v -0.1 2.5 6.3
v -0.3 2.5 6.2
v 0 2.5 6.2
v -0.2 2.6 6.4
v -0.1 2.6 6.4
v -0.2 2.6 6.3
v -0.1 2.6 6.3

# faces
f 3/2/1 2/2/1 1/2/1
f 4/2/1 2/2/1 3/2/1
f 7/2/1 6/2/1 5/2/1
f 8/2/1 6/2/1 7/2/1
f 11/1/1 10/1/1 9/1/1
f 12/1/1 10/1/1 11/1/1
f 13/1/1 11/1/1 9/1/1
f 14/1/1 10/1/1 12/1/1
f 15/1/1 13/1/1 9/1/1
f 15/1/1 14/1/1 13/1/1
f 16/1/1 10/1/1 14/1/1
f 16/1/1 14/1/1 15/1/1
f 17/1/1 15/1/1 9/1/1
f 18/1/1 10/1/1 16/1/1
f 19/1/1 17/1/1 9/1/1
f 19/1/1 18/1/1 17/1/1
f 20/1/1 10/1/1 18/1/1
f 20/1/1 18/1/1 19/1/1
f 23/1/1 22/1/1 21/1/1
f 24/1/1 22/1/1 23/1/1
f 27/2/1 26/2/1 25/2/1
f 28/2/1 26/2/1 27/2/1
f 31/2/1 30/2/1 29/2/1
f 32/2/1 30/2/1 31/2/1
f 35/2/1 34/2/1 33/2/1
f 36/2/1 34/2/1 35/2/1
f 39/1/1 38/1/1 37/1/1
f 40/1/1 38/1/1 39/1/1
f 43/2/1 42/2/1 41/2/1
f 44/2/1 42/2/1 43/2/1
f 47/2/1 46/2/1 45/2/1
f 48/2/1 46/2/1 47/2/1
f 51/2/1 50/2/1 49/2/1
f 52/2/1 50/2/1 51/2/1
f 55/2/1 54/2/1 53/2/1
f 56/2/1 54/2/1 55/2/1
f 59/1/1 58/1/1 57/1/1
f 61/1/1 59/1/1 57/1/1
f 62/1/1 59/1/1 61/1/1
f 63/2/1 60/2/1 59/2/1
f 63/1/1 59/1/1 62/1/1
f 64/2/1 60/2/1 63/2/1
f 65/1/1 61/1/1 57/1/1
f 66/1/1 63/1/1 62/1/1
f 67/1/1 65/1/1 57/1/1
f 67/1/1 66/1/1 65/1/1
f 68/1/1 63/1/1 66/1/1
f 68/1/1 66/1/1 67/1/1
f 72/1/1 70/1/1 69/1/1
f 73/2/1 72/2/1 71/2/1
f 74/1/1 70/1/1 72/1/1
f 74/2/1 72/2/1 73/2/1
f 75/1/1 70/1/1 74/1/1
f 76/1/1 70/1/1 75/1/1
f 78/1/1 70/1/1 76/1/1
f 79/1/1 70/1/1 78/1/1
f 79/1/1 78/1/1 77/1/1
f 80/1/1 70/1/1 79/1/1
f 81/1/1 79/1/1 77/1/1
f 84/1/1 81/1/1 77/1/1
f 84/1/1 82/1/1 81/1/1
f 85/1/1 82/1/1 84/1/1
f 87/2/1 84/2/1 83/2/1
f 88/1/1 85/1/1 84/1/1
f 88/2/1 84/2/1 87/2/1
f 89/2/1 86/2/1 85/2/1
f 89/1/1 85/1/1 88/1/1
f 90/2/1 86/2/1 89/2/1
f 91/1/1 89/1/1 88/1/1
f 92/1/1 89/1/1 91/1/1
f 95/2/1 94/2/1 93/2/1
f 96/2/1 94/2/1 95/2/1
f 99/2/1 98/2/1 97/2/1
f 100/2/1 98/2/1 99/2/1
f 103/2/1 102/2/1 101/2/1
f 104/2/1 102/2/1 103/2/1
f 107/2/1 106/2/1 105/2/1
f 108/2/1 106/2/1 107/2/1
f 111/2/1 110/2/1 109/2/1
f 112/2/1 110/2/1 111/2/1
f 115/2/1 114/2/1 113/2/1
f 116/2/1 114/2/1 115/2/1
f 120/1/1 118/1/1 117/1/1
f 121/2/1 120/2/1 119/2/1
f 122/1/1 118/1/1 120/1/1
f 122/2/1 120/2/1 121/2/1
f 123/1/1 118/1/1 122/1/1
f 126/2/1 125/2/1 124/2/1
f 127/2/1 125/2/1 126/2/1
f 130/2/1 129/2/1 128/2/1
f 131/2/1 129/2/1 130/2/1
f 134/2/1 133/2/1 132/2/1
f 135/2/1 133/2/1 134/2/1
f 136/2/2 137/2/2 138/2/2
f 138/2/2 137/2/2 139/2/2
f 140/2/2 141/2/2 142/2/2
f 142/2/2 141/2/2 143/2/2
f 144/2/2 145/2/2 146/2/2
f 146/2/2 145/2/2 147/2/2
f 148/1/2 149/1/2 150/1/2
f 148/1/2 150/1/2 152/1/2
f 150/2/2 151/2/2 152/2/2
f 152/2/2 151/2/2 153/2/2
f 148/1/2 152/1/2 154/1/2
f 154/1/2 152/1/2 155/1/2
f 156/2/2 157/2/2 158/2/2
f 158/2/2 157/2/2 159/2/2
f 160/2/2 161/2/2 162/2/2
f 162/2/2 161/2/2 163/2/2
f 164/2/2 165/2/2 168/2/2
f 168/2/2 165/2/2 169/2/2
f 166/2/2 167/2/2 170/2/2
f 170/2/2 167/2/2 171/2/2
f 172/2/2 173/2/2 174/2/2
f 174/2/2 173/2/2 175/2/2
f 176/2/2 177/2/2 178/2/2
f 178/2/2 177/2/2 179/2/2
f 180/2/2 181/2/2 182/2/2
f 182/2/2 181/2/2 183/2/2
f 184/1/2 185/1/2 186/1/2
f 186/1/2 185/1/2 187/1/2
f 184/1/2 186/1/2 188/1/2
f 187/1/2 185/1/2 189/1/2
f 189/1/2 185/1/2 190/1/2
f 188/1/2 189/1/2 190/1/2
f 188/1/2 190/1/2 192/1/2
f 190/2/2 191/2/2 192/2/2
f 192/2/2 191/2/2 193/2/2
f 184/1/2 188/1/2 194/1/2
f 188/1/2 192/1/2 194/1/2
f 194/1/2 192/1/2 195/1/2
f 195/1/2 192/1/2 197/1/2
f 196/1/2 197/1/2 198/1/2
f 197/1/2 192/1/2 199/1/2
f 198/1/2 197/1/2 199/1/2
f 200/2/2 201/2/2 202/2/2
f 202/2/2 201/2/2 203/2/2
f 203/1/2 204/1/2 206/1/2
f 204/2/2 205/2/2 206/2/2
f 206/2/2 205/2/2 207/2/2
f 203/1/2 206/1/2 208/1/2
f 208/1/2 206/1/2 209/1/2
f 210/2/2 211/2/2 212/2/2
f 212/2/2 211/2/2 213/2/2
f 214/2/2 215/2/2 216/2/2
f 216/2/2 215/2/2 217/2/2
f 218/1/2 219/1/2 220/1/2
f 220/1/2 219/1/2 221/1/2
f 222/2/2 223/2/2 224/2/2
f 224/2/2 223/2/2 225/2/2
f 226/1/2 227/1/2 228/1/2
f 228/1/2 227/1/2 229/1/2
f 230/2/2 231/2/2 232/2/2
f 232/2/2 231/2/2 233/2/2
f 234/2/2 235/2/2 236/2/2
f 236/2/2 235/2/2 237/2/2
f 238/2/2 239/2/2 240/2/2
f 240/2/2 239/2/2 241/2/2
f 242/1/2 243/1/2 244/1/2
f 244/1/2 243/1/2 245/1/2
f 242/1/2 244/1/2 246/1/2
f 245/1/2 243/1/2 247/1/2
f 247/1/2 243/1/2 248/1/2
f 246/1/2 247/1/2 248/1/2
f 248/1/2 243/1/2 249/1/2
f 246/1/2 248/1/2 250/1/2
f 242/1/2 246/1/2 252/1/2
f 250/1/2 251/1/2 252/1/2
f 246/1/2 250/1/2 252/1/2
f 252/1/2 251/1/2 253/1/2
f 254/2/2 255/2/2 256/2/2
f 256/2/2 255/2/2 257/2/2
f 258/2/2 259/2/2 260/2/2
f 260/2/2 259/2/2 261/2/2
f 264/2/3 263/2/3 262/2/3
f 265/2/3 263/2/3 264/2/3
f 272/2/3 267/2/3 266/2/3
f 273/2/3 267/2/3 272/2/3
f 274/2/3 269/2/3 268/2/3
f 275/2/3 269/2/3 274/2/3
f 276/2/3 271/2/3 270/2/3
f 277/2/3 271/2/3 276/2/3
f 280/2/3 279/2/3 278/2/3
f 281/2/3 279/2/3 280/2/3
f 286/2/3 283/2/3 282/2/3
f 287/2/3 283/2/3 286/2/3
f 288/2/3 285/2/3 284/2/3
f 289/2/3 285/2/3 288/2/3
f 293/1/3 291/1/3 290/1/3
f 294/1/3 291/1/3 293/1/3
f 295/1/3 291/1/3 294/1/3
f 297/1/3 293/1/3 292/1/3
f 297/1/3 294/1/3 293/1/3
f 298/1/3 294/1/3 297/1/3
f 299/1/3 291/1/3 295/1/3
f 300/1/3 298/1/3 297/1/3
f 300/1/3 299/1/3 298/1/3
f 300/1/3 297/1/3 296/1/3
f 301/1/3 291/1/3 299/1/3
f 301/1/3 299/1/3 300/1/3
f 305/1/3 300/1/3 296/1/3
f 306/1/3 300/1/3 305/1/3
f 309/2/3 303/2/3 302/2/3
f 310/2/3 303/2/3 309/2/3
f 314/1/3 307/1/3 306/1/3
f 314/1/3 305/1/3 304/1/3
f 314/1/3 306/1/3 305/1/3
f 315/1/3 307/1/3 314/1/3
f 316/1/3 307/1/3 315/1/3
f 317/1/3 310/1/3 309/1/3
f 317/1/3 311/1/3 310/1/3
f 317/1/3 309/1/3 308/1/3
f 318/1/3 311/1/3 317/1/3
f 319/1/3 313/1/3 312/1/3
f 320/1/3 314/1/3 304/1/3
f 321/1/3 318/1/3 317/1/3
f 321/1/3 316/1/3 315/1/3
f 321/1/3 319/1/3 318/1/3
f 321/1/3 317/1/3 316/1/3
f 322/1/3 319/1/3 321/1/3
f 323/1/3 319/1/3 322/1/3
f 324/1/3 320/1/3 304/1/3
f 324/1/3 321/1/3 320/1/3
f 324/1/3 322/1/3 321/1/3
f 325/1/3 322/1/3 324/1/3
f 326/1/3 322/1/3 325/1/3
f 327/1/3 322/1/3 326/1/3
f 328/1/3 322/1/3 327/1/3
f 329/1/3 319/1/3 323/1/3
f 330/1/3 313/1/3 319/1/3
f 330/1/3 319/1/3 329/1/3
f 331/2/3 326/2/3 325/2/3
f 332/2/3 326/2/3 331/2/3
f 333/1/3 328/1/3 327/1/3
f 333/1/3 329/1/3 328/1/3
f 335/1/3 333/1/3 327/1/3
f 335/1/3 334/1/3 333/1/3
f 336/1/3 334/1/3 335/1/3
f 337/1/3 334/1/3 336/1/3
f 338/1/3 334/1/3 337/1/3
f 339/1/3 334/1/3 338/1/3
f 341/1/3 337/1/3 336/1/3
f 342/1/3 337/1/3 341/1/3
f 343/1/3 337/1/3 342/1/3
f 344/1/3 340/1/3 339/1/3
f 344/1/3 339/1/3 338/1/3
f 345/1/3 343/1/3 342/1/3
f 345/1/3 344/1/3 343/1/3
f 346/1/3 340/1/3 344/1/3
f 346/1/3 344/1/3 345/1/3
f 351/2/3 348/2/3 347/2/3
f 352/2/3 348/2/3 351/2/3
f 353/2/3 350/2/3 349/2/3
f 354/2/3 350/2/3 353/2/3
f 357/2/3 356/2/3 355/2/3
f 358/2/3 356/2/3 357/2/3
f 361/2/3 360/2/3 359/2/3
f 362/2/3 360/2/3 361/2/3
f 365/2/3 364/2/3 363/2/3
f 366/2/3 364/2/3 365/2/3
f 369/2/3 368/2/3 367/2/3
f 370/2/3 368/2/3 369/2/3
f 373/2/3 372/2/3 371/2/3
f 374/2/3 372/2/3 373/2/3
f 377/2/3 376/2/3 375/2/3
f 378/2/3 376/2/3 377/2/3
f 381/2/3 380/2/3 379/2/3
f 382/2/3 380/2/3 381/2/3
f 385/2/3 384/2/3 383/2/3
f 386/2/3 384/2/3 385/2/3
f 387/2/4 388/2/4 389/2/4
f 389/2/4 388/2/4 390/2/4
f 391/2/4 392/2/4 393/2/4
f 393/2/4 392/2/4 394/2/4
f 395/2/4 396/2/4 399/2/4
f 399/2/4 396/2/4 400/2/4
f 397/2/4 398/2/4 401/2/4
f 401/2/4 398/2/4 402/2/4
f 403/2/4 404/2/4 405/2/4
f 405/2/4 404/2/4 406/2/4
f 407/2/4 408/2/4 409/2/4
f 409/2/4 408/2/4 410/2/4
f 411/2/4 412/2/4 413/2/4
f 413/2/4 412/2/4 414/2/4
f 415/2/4 416/2/4 417/2/4
f 417/2/4 416/2/4 418/2/4
f 419/2/4 420/2/4 421/2/4
f 421/2/4 420/2/4 422/2/4
f 423/2/4 424/2/4 425/2/4
f 425/2/4 424/2/4 426/2/4
f 427/1/4 428/1/4 430/1/4
f 430/1/4 428/1/4 431/1/4
f 431/1/4 428/1/4 432/1/4
f 429/1/4 430/1/4 434/1/4
f 430/1/4 431/1/4 434/1/4
f 434/1/4 431/1/4 435/1/4
f 432/1/4 428/1/4 436/1/4
f 436/1/4 428/1/4 437/1/4
f 437/1/4 428/1/4 438/1/4
f 434/1/4 435/1/4 439/1/4
f 433/1/4 434/1/4 439/1/4
f 436/1/4 437/1/4 439/1/4
f 435/1/4 436/1/4 439/1/4
f 439/1/4 437/1/4 440/1/4
f 438/1/4 428/1/4 441/1/4
f 441/1/4 428/1/4 442/1/4
f 433/1/4 439/1/4 448/1/4
f 448/1/4 439/1/4 449/1/4
f 443/2/4 444/2/4 450/2/4
f 450/2/4 444/2/4 451/2/4
f 445/1/4 446/1/4 455/1/4
f 450/1/4 451/1/4 456/1/4
f 448/1/4 449/1/4 456/1/4
f 451/1/4 452/1/4 456/1/4
f 449/1/4 450/1/4 456/1/4
f 447/1/4 448/1/4 456/1/4
f 456/1/4 452/1/4 457/1/4
f 457/1/4 452/1/4 458/1/4
f 458/1/4 452/1/4 459/1/4
f 453/1/4 454/1/4 460/1/4
f 455/1/4 456/1/4 461/1/4
f 456/1/4 457/1/4 461/1/4
f 461/1/4 457/1/4 462/1/4
f 462/1/4 457/1/4 463/1/4
f 458/1/4 459/1/4 464/1/4
f 459/1/4 460/1/4 464/1/4
f 464/1/4 460/1/4 465/1/4
f 465/1/4 460/1/4 466/1/4
f 445/1/4 455/1/4 467/1/4
f 455/1/4 461/1/4 467/1/4
f 467/1/4 461/1/4 468/1/4
f 462/1/4 463/1/4 469/1/4
f 464/1/4 465/1/4 469/1/4
f 463/1/4 464/1/4 469/1/4
f 469/1/4 465/1/4 470/1/4
f 470/1/4 465/1/4 471/1/4
f 466/1/4 460/1/4 472/1/4
f 460/1/4 454/1/4 473/1/4
f 472/1/4 460/1/4 473/1/4
f 470/1/4 471/1/4 474/1/4
f 470/1/4 474/1/4 476/1/4
f 474/1/4 475/1/4 476/1/4
f 476/1/4 475/1/4 477/1/4
f 477/1/4 475/1/4 478/1/4
f 478/1/4 475/1/4 479/1/4
f 477/1/4 478/1/4 480/1/4
f 480/1/4 478/1/4 481/1/4
f 481/1/4 478/1/4 482/1/4
f 479/1/4 475/1/4 483/1/4
f 481/1/4 482/1/4 484/1/4
f 482/1/4 483/1/4 484/1/4
f 483/1/4 475/1/4 485/1/4
f 484/1/4 483/1/4 485/1/4
f 485/1/4 475/1/4 486/1/4
f 486/1/4 475/1/4 487/1/4
f 485/2/4 486/2/4 488/2/4
f 488/2/4 486/2/4 489/2/4
f 490/2/4 491/2/4 492/2/4
f 492/2/4 491/2/4 493/2/4
f 494/2/4 495/2/4 496/2/4
f 496/2/4 495/2/4 497/2/4
f 498/2/4 499/2/4 502/2/4
f 502/2/4 499/2/4 503/2/4
f 500/2/4 501/2/4 506/2/4
f 506/2/4 501/2/4 507/2/4
f 504/2/4 505/2/4 510/2/4
f 510/2/4 505/2/4 511/2/4
f 508/2/4 509/2/4 514/2/4
f 514/2/4 509/2/4 515/2/4
f 512/2/4 513/2/4 516/2/4
f 516/2/4 513/2/4 517/2/4
f 518/2/4 519/2/4 520/2/4
f 520/2/4 519/2/4 521/2/4
f 524/1/5 523/1/5 522/1/5
f 525/1/5 523/1/5 524/1/5
f 528/2/5 527/2/5 526/2/5
f 529/2/5 527/2/5 528/2/5
f 532/2/5 531/2/5 530/2/5
f 533/2/5 531/2/5 532/2/5
f 536/2/5 535/2/5 534/2/5
f 537/2/5 535/2/5 536/2/5
f 540/2/5 539/2/5 538/2/5
f 541/2/5 539/2/5 540/2/5
f 544/1/5 543/1/5 542/1/5
f 545/1/5 543/1/5 544/1/5
f 548/2/5 547/2/5 546/2/5
f 549/2/5 547/2/5 548/2/5
f 552/1/5 551/1/5 550/1/5
f 553/1/5 551/1/5 552/1/5
f 558/2/5 557/2/5 556/2/5
f 559/2/5 557/2/5 558/2/5
f 560/1/5 555/1/5 554/1/5
f 561/1/5 555/1/5 560/1/5
f 564/2/5 563/2/5 562/2/5
f 565/2/5 563/2/5 564/2/5
f 570/2/5 567/2/5 566/2/5
f 571/2/5 567/2/5 570/2/5
f 572/2/5 569/2/5 568/2/5
f 573/2/5 569/2/5 572/2/5
f 578/2/5 575/2/5 574/2/5
f 579/2/5 575/2/5 578/2/5
f 580/2/5 577/2/5 576/2/5
f 581/2/5 577/2/5 580/2/5
f 586/2/5 583/2/5 582/2/5
f 587/2/5 583/2/5 586/2/5
f 588/1/5 585/1/5 584/1/5
f 589/1/5 585/1/5 588/1/5
f 594/2/5 593/2/5 592/2/5
f 595/2/5 593/2/5 594/2/5
f 598/1/5 591/1/5 590/1/5
f 599/1/5 591/1/5 598/1/5
f 600/2/5 597/2/5 596/2/5
f 601/2/5 597/2/5 600/2/5
f 604/2/5 603/2/5 602/2/5
f 605/2/5 603/2/5 604/2/5
f 608/1/5 607/1/5 606/1/5
f 609/1/5 607/1/5 608/1/5
f 612/2/5 611/2/5 610/2/5
f 613/2/5 611/2/5 612/2/5
f 618/2/5 615/2/5 614/2/5
f 619/2/5 615/2/5 618/2/5
f 620/2/5 617/2/5 616/2/5
f 621/2/5 617/2/5 620/2/5
f 624/2/5 623/2/5 622/2/5
f 625/2/5 623/2/5 624/2/5
f 628/2/5 627/2/5 626/2/5
f 629/2/5 627/2/5 628/2/5
f 632/2/5 631/2/5 630/2/5
f 633/2/5 631/2/5 632/2/5
f 638/2/5 635/2/5 634/2/5
f 639/2/5 635/2/5 638/2/5
f 640/2/5 637/2/5 636/2/5
f 641/2/5 637/2/5 640/2/5
f 644/2/5 643/2/5 642/2/5
f 645/2/5 643/2/5 644/2/5
f 646/2/6 647/2/6 648/2/6
f 648/2/6 647/2/6 649/2/6
f 650/2/6 651/2/6 652/2/6
f 652/2/6 651/2/6 653/2/6
f 654/2/6 655/2/6 656/2/6
f 656/2/6 655/2/6 657/2/6
f 658/2/6 659/2/6 660/2/6
f 660/2/6 659/2/6 661/2/6
f 662/2/6 663/2/6 664/2/6
f 664/2/6 663/2/6 665/2/6
f 668/2/6 669/2/6 670/2/6
f 670/2/6 669/2/6 671/2/6
f 666/1/6 667/1/6 672/1/6
f 672/1/6 667/1/6 673/1/6
f 674/2/6 675/2/6 676/2/6
f 676/2/6 675/2/6 677/2/6
f 678/2/6 679/2/6 682/2/6
f 682/2/6 679/2/6 683/2/6
f 680/2/6 681/2/6 684/2/6
f 684/2/6 681/2/6 685/2/6
f 686/2/6 687/2/6 690/2/6
f 690/2/6 687/2/6 691/2/6
f 688/2/6 689/2/6 692/2/6
f 692/2/6 689/2/6 693/2/6
f 694/2/6 695/2/6 696/2/6
f 696/2/6 695/2/6 697/2/6
f 698/2/6 699/2/6 700/2/6
f 700/2/6 699/2/6 701/2/6
f 702/2/6 703/2/6 704/2/6
f 704/2/6 703/2/6 705/2/6
f 706/2/6 707/2/6 708/2/6
f 708/2/6 707/2/6 709/2/6
f 709/1/6 710/1/6 711/1/6
f 711/1/6 710/1/6 712/1/6
f 713/2/6 714/2/6 715/2/6
f 715/2/6 714/2/6 716/2/6
f 717/2/6 718/2/6 721/2/6
f 721/2/6 718/2/6 722/2/6
f 719/2/6 720/2/6 723/2/6
f 723/2/6 720/2/6 724/2/6
f 725/1/6 726/1/6 727/1/6
f 727/1/6 726/1/6 728/1/6
f 725/1/6 727/1/6 729/1/6
f 728/1/6 726/1/6 730/1/6
f 725/1/6 729/1/6 733/1/6
f 729/1/6 730/1/6 733/1/6
f 730/1/6 726/1/6 734/1/6
f 733/1/6 730/1/6 734/1/6
f 731/2/6 732/2/6 735/2/6
f 735/2/6 732/2/6 736/2/6
f 737/2/6 738/2/6 739/2/6
f 739/2/6 738/2/6 740/2/6
f 741/2/6 742/2/6 743/2/6
f 743/2/6 742/2/6 744/2/6
f 745/2/6 746/2/6 747/2/6
f 747/2/6 746/2/6 748/2/6
f 749/2/6 750/2/6 753/2/6
f 753/2/6 750/2/6 754/2/6
f 751/2/6 752/2/6 755/2/6
f 755/2/6 752/2/6 756/2/6
f 756/1/6 757/1/6 758/1/6
f 755/1/6 756/1/6 758/1/6
f 758/1/6 757/1/6 759/1/6
f 755/1/6 758/1/6 760/1/6
f 759/1/6 757/1/6 761/1/6
f 755/1/6 760/1/6 764/1/6
f 760/1/6 761/1/6 764/1/6
f 761/1/6 757/1/6 765/1/6
f 764/1/6 761/1/6 765/1/6
f 762/2/6 763/2/6 766/2/6
f 766/2/6 763/2/6 767/2/6
f 768/2/6 769/2/6 770/2/6
f 770/2/6 769/2/6 771/2/6
f 772/1/6 773/1/6 774/1/6
f 774/1/6 773/1/6 775/1/6
f 772/1/6 774/1/6 776/1/6
f 775/1/6 773/1/6 777/1/6
f 772/1/6 776/1/6 778/1/6
f 776/1/6 777/1/6 778/1/6
f 777/1/6 773/1/6 779/1/6
f 778/1/6 777/1/6 779/1/6
f 780/2/6 781/2/6 782/2/6
f 782/2/6 781/2/6 783/2/6
