# MagicaVoxel @ Ephtracy

# group
o Zabor_3

# material
mtllib All-20-Zabor_3.mtl
usemtl palette

# normals
vn -1 0 0
vn 1 0 0
vn 0 0 1
vn 0 0 -1
vn 0 -1 0
vn 0 1 0

# texcoords
vt 0.962891 0.5
vt 0.970703 0.5
vt 0.974609 0.5
vt 0.978516 0.5

# verts
v -5 0.1 -10.2
v -5 0.1 -14.2
v -5 0.2 -10.2
v -5 0.2 -14.2
v -4.9 0.2 -10.2
v -4.9 0.2 -14.2
v -4.9 0.7 -10.2
v -4.9 0.7 -14.2
v -4.9 2.3 -10.2
v -4.9 2.3 -10.3
v -4.9 2.3 -14.1
v -4.9 2.3 -14.2
v -4.9 2.4 -10.3
v -4.9 2.4 -14.1
v -4.7 0.4 -10.4
v -4.7 0.4 -10.8
v -4.7 0.4 -11.2
v -4.7 0.4 -11.6
v -4.7 0.4 -12
v -4.7 0.4 -12.4
v -4.7 0.4 -12.8
v -4.7 0.4 -13.2
v -4.7 0.4 -13.6
v -4.7 0.4 -14
v -4.7 0.7 -10.4
v -4.7 0.7 -10.8
v -4.7 0.7 -11.2
v -4.7 0.7 -11.6
v -4.7 0.7 -12
v -4.7 0.7 -12.4
v -4.7 0.7 -12.8
v -4.7 0.7 -13.2
v -4.7 0.7 -13.6
v -4.7 0.7 -14
v -4.7 0.8 -12.4
v -4.7 0.8 -12.8
v -4.7 0.8 -13
v -4.7 0.9 -10.5
v -4.7 0.9 -10.8
v -4.7 0.9 -12.8
v -4.7 0.9 -13
v -4.7 1 -10.6
v -4.7 1 -10.8
v -4.7 1 -11.3
v -4.7 1 -11.6
v -4.7 1.1 -11.4
v -4.7 1.1 -11.6
v -4.7 1.2 -10.7
v -4.7 1.2 -10.8
v -4.7 1.2 -11.6
v -4.7 1.2 -12.8
v -4.7 1.2 -12.9
v -4.7 1.2 -13.2
v -4.7 1.2 -13.6
v -4.7 1.2 -13.8
v -4.7 1.3 -10.7
v -4.7 1.3 -10.8
v -4.7 1.3 -11.6
v -4.7 1.3 -12.8
v -4.7 1.3 -12.9
v -4.7 1.3 -13.6
v -4.7 1.3 -13.8
v -4.7 1.4 -10.7
v -4.7 1.4 -10.8
v -4.7 1.4 -12.8
v -4.7 1.4 -12.9
v -4.7 1.4 -13.6
v -4.7 1.4 -13.8
v -4.7 1.5 -10.7
v -4.7 1.5 -10.8
v -4.7 1.5 -11.4
v -4.7 1.5 -11.6
v -4.7 1.5 -12.8
v -4.7 1.5 -12.9
v -4.7 1.5 -13.6
v -4.7 1.5 -13.8
v -4.7 1.6 -10.7
v -4.7 1.6 -10.8
v -4.7 1.6 -11.4
v -4.7 1.6 -11.6
v -4.7 1.6 -12.8
v -4.7 1.6 -12.9
v -4.7 1.7 -10.7
v -4.7 1.7 -10.8
v -4.7 1.7 -12.8
v -4.7 1.7 -12.9
v -4.7 1.7 -13.6
v -4.7 1.7 -13.7
v -4.7 1.8 -10.5
v -4.7 1.8 -10.6
v -4.7 1.8 -10.8
v -4.7 1.8 -11.5
v -4.7 1.8 -11.6
v -4.7 1.8 -12.4
v -4.7 1.8 -12.8
v -4.7 1.8 -13
v -4.7 1.8 -13.6
v -4.7 1.8 -13.7
v -4.7 1.9 -11.5
v -4.7 1.9 -11.6
v -4.7 2 -11.3
v -4.7 2 -11.4
v -4.7 2 -11.6
v -4.7 2 -13.2
v -4.7 2 -13.6
v -4.7 2 -13.8
v -4.7 2.2 -10.4
v -4.7 2.2 -10.8
v -4.7 2.2 -11.2
v -4.7 2.2 -11.6
v -4.7 2.2 -12
v -4.7 2.2 -12.4
v -4.7 2.2 -12.8
v -4.7 2.2 -13.2
v -4.7 2.2 -13.6
v -4.7 2.2 -14
v -4.6 0.2 -10.2
v -4.6 0.2 -14.2
v -4.6 0.4 -10.4
v -4.6 0.4 -10.8
v -4.6 0.4 -11.2
v -4.6 0.4 -11.6
v -4.6 0.4 -12
v -4.6 0.4 -12.4
v -4.6 0.4 -12.8
v -4.6 0.4 -13.2
v -4.6 0.4 -13.6
v -4.6 0.4 -14
v -4.6 0.7 -10.2
v -4.6 0.7 -10.4
v -4.6 0.7 -10.8
v -4.6 0.7 -11.2
v -4.6 0.7 -11.6
v -4.6 0.7 -12
v -4.6 0.7 -12.4
v -4.6 0.7 -12.8
v -4.6 0.7 -13.2
v -4.6 0.7 -13.6
v -4.6 0.7 -14
v -4.6 0.7 -14.2
v -4.6 0.8 -12.4
v -4.6 0.8 -12.8
v -4.6 0.9 -10.8
v -4.6 0.9 -11.1
v -4.6 0.9 -12.5
v -4.6 0.9 -12.8
v -4.6 1 -10.8
v -4.6 1 -11.1
v -4.6 1 -11.6
v -4.6 1 -11.9
v -4.6 1.1 -11.6
v -4.6 1.1 -11.9
v -4.6 1.2 -10.8
v -4.6 1.2 -11
v -4.6 1.2 -11.6
v -4.6 1.2 -11.8
v -4.6 1.2 -12.6
v -4.6 1.2 -12.8
v -4.6 1.2 -13.2
v -4.6 1.2 -13.6
v -4.6 1.3 -10.8
v -4.6 1.3 -11
v -4.6 1.3 -11.6
v -4.6 1.3 -11.8
v -4.6 1.3 -12.6
v -4.6 1.3 -12.8
v -4.6 1.3 -13.3
v -4.6 1.3 -13.6
v -4.6 1.4 -10.8
v -4.6 1.4 -11
v -4.6 1.4 -12.6
v -4.6 1.4 -12.8
v -4.6 1.4 -13.3
v -4.6 1.4 -13.6
v -4.6 1.5 -10.8
v -4.6 1.5 -11
v -4.6 1.5 -11.6
v -4.6 1.5 -11.8
v -4.6 1.5 -12.6
v -4.6 1.5 -12.8
v -4.6 1.5 -13.3
v -4.6 1.5 -13.6
v -4.6 1.6 -10.8
v -4.6 1.6 -11
v -4.6 1.6 -11.6
v -4.6 1.6 -11.8
v -4.6 1.6 -12.6
v -4.6 1.6 -12.8
v -4.6 1.7 -10.8
v -4.6 1.7 -11
v -4.6 1.7 -12.6
v -4.6 1.7 -12.8
v -4.6 1.7 -13.4
v -4.6 1.7 -13.6
v -4.6 1.8 -10.8
v -4.6 1.8 -11.1
v -4.6 1.8 -11.6
v -4.6 1.8 -11.8
v -4.6 1.8 -12.4
v -4.6 1.8 -12.5
v -4.6 1.8 -12.8
v -4.6 1.8 -13.4
v -4.6 1.8 -13.6
v -4.6 1.9 -11.6
v -4.6 1.9 -11.8
v -4.6 2 -11.6
v -4.6 2 -11.9
v -4.6 2 -13.2
v -4.6 2 -13.3
v -4.6 2 -13.6
v -4.6 2.2 -10.4
v -4.6 2.2 -10.8
v -4.6 2.2 -11.2
v -4.6 2.2 -11.6
v -4.6 2.2 -12
v -4.6 2.2 -12.4
v -4.6 2.2 -12.8
v -4.6 2.2 -13.2
v -4.6 2.2 -13.6
v -4.6 2.2 -14
v -4.6 2.3 -10.2
v -4.6 2.3 -10.3
v -4.6 2.3 -14.1
v -4.6 2.3 -14.2
v -4.6 2.4 -10.3
v -4.6 2.4 -14.1
v -4.5 0.1 -10.2
v -4.5 0.1 -14.2
v -4.5 0.2 -10.2
v -4.5 0.2 -14.2
v -5 0.1 -10.2
v -5 0.2 -10.2
v -4.9 0.2 -10.2
v -4.9 0.7 -10.2
v -4.9 2.3 -10.2
v -4.6 0.2 -10.2
v -4.6 0.7 -10.2
v -4.6 2.3 -10.2
v -4.5 0.1 -10.2
v -4.5 0.2 -10.2
v -4.9 2.3 -10.3
v -4.9 2.4 -10.3
v -4.6 2.3 -10.3
v -4.6 2.4 -10.3
v -4.7 0.4 -10.8
v -4.7 0.7 -10.8
v -4.7 0.9 -10.8
v -4.7 1 -10.8
v -4.7 1.2 -10.8
v -4.7 1.3 -10.8
v -4.7 1.4 -10.8
v -4.7 1.5 -10.8
v -4.7 1.6 -10.8
v -4.7 1.7 -10.8
v -4.7 1.8 -10.8
v -4.7 2.2 -10.8
v -4.6 0.4 -10.8
v -4.6 0.7 -10.8
v -4.6 0.9 -10.8
v -4.6 1 -10.8
v -4.6 1.2 -10.8
v -4.6 1.3 -10.8
v -4.6 1.4 -10.8
v -4.6 1.5 -10.8
v -4.6 1.6 -10.8
v -4.6 1.7 -10.8
v -4.6 1.8 -10.8
v -4.6 2.2 -10.8
v -4.7 0.4 -11.6
v -4.7 0.7 -11.6
v -4.7 1 -11.6
v -4.7 1.1 -11.6
v -4.7 1.2 -11.6
v -4.7 1.3 -11.6
v -4.7 1.5 -11.6
v -4.7 1.6 -11.6
v -4.7 1.8 -11.6
v -4.7 1.9 -11.6
v -4.7 2 -11.6
v -4.7 2.2 -11.6
v -4.6 0.4 -11.6
v -4.6 0.7 -11.6
v -4.6 1 -11.6
v -4.6 1.1 -11.6
v -4.6 1.2 -11.6
v -4.6 1.3 -11.6
v -4.6 1.5 -11.6
v -4.6 1.6 -11.6
v -4.6 1.8 -11.6
v -4.6 1.9 -11.6
v -4.6 2 -11.6
v -4.6 2.2 -11.6
v -4.7 0.4 -12.4
v -4.7 0.7 -12.4
v -4.7 0.8 -12.4
v -4.7 1.8 -12.4
v -4.7 2.2 -12.4
v -4.6 0.4 -12.4
v -4.6 0.7 -12.4
v -4.6 0.8 -12.4
v -4.6 1.8 -12.4
v -4.6 2.2 -12.4
v -4.7 0.4 -13.2
v -4.7 0.7 -13.2
v -4.7 1.2 -13.2
v -4.7 2 -13.2
v -4.7 2.2 -13.2
v -4.6 0.4 -13.2
v -4.6 0.7 -13.2
v -4.6 1.2 -13.2
v -4.6 2 -13.2
v -4.6 2.2 -13.2
v -4.7 0.4 -14
v -4.7 0.7 -14
v -4.7 2.2 -14
v -4.6 0.4 -14
v -4.6 0.7 -14
v -4.6 2.2 -14
v -4.7 0.4 -10.4
v -4.7 0.7 -10.4
v -4.7 2.2 -10.4
v -4.6 0.4 -10.4
v -4.6 0.7 -10.4
v -4.6 2.2 -10.4
v -4.7 0.4 -11.2
v -4.7 0.7 -11.2
v -4.7 2.2 -11.2
v -4.6 0.4 -11.2
v -4.6 0.7 -11.2
v -4.6 2.2 -11.2
v -4.7 0.4 -12
v -4.7 0.7 -12
v -4.7 2.2 -12
v -4.6 0.4 -12
v -4.6 0.7 -12
v -4.6 2.2 -12
v -4.7 0.4 -12.8
v -4.7 0.7 -12.8
v -4.7 0.8 -12.8
v -4.7 0.9 -12.8
v -4.7 1.2 -12.8
v -4.7 1.3 -12.8
v -4.7 1.4 -12.8
v -4.7 1.5 -12.8
v -4.7 1.6 -12.8
v -4.7 1.7 -12.8
v -4.7 1.8 -12.8
v -4.7 2.2 -12.8
v -4.6 0.4 -12.8
v -4.6 0.7 -12.8
v -4.6 0.8 -12.8
v -4.6 0.9 -12.8
v -4.6 1.2 -12.8
v -4.6 1.3 -12.8
v -4.6 1.4 -12.8
v -4.6 1.5 -12.8
v -4.6 1.6 -12.8
v -4.6 1.7 -12.8
v -4.6 1.8 -12.8
v -4.6 2.2 -12.8
v -4.7 0.4 -13.6
v -4.7 0.7 -13.6
v -4.7 1.2 -13.6
v -4.7 1.3 -13.6
v -4.7 1.4 -13.6
v -4.7 1.5 -13.6
v -4.7 1.7 -13.6
v -4.7 1.8 -13.6
v -4.7 2 -13.6
v -4.7 2.2 -13.6
v -4.6 0.4 -13.6
v -4.6 0.7 -13.6
v -4.6 1.2 -13.6
v -4.6 1.3 -13.6
v -4.6 1.4 -13.6
v -4.6 1.5 -13.6
v -4.6 1.7 -13.6
v -4.6 1.8 -13.6
v -4.6 2 -13.6
v -4.6 2.2 -13.6
v -4.9 2.3 -14.1
v -4.9 2.4 -14.1
v -4.6 2.3 -14.1
v -4.6 2.4 -14.1
v -5 0.1 -14.2
v -5 0.2 -14.2
v -4.9 0.2 -14.2
v -4.9 0.7 -14.2
v -4.9 2.3 -14.2
v -4.6 0.2 -14.2
v -4.6 0.7 -14.2
v -4.6 2.3 -14.2
v -4.5 0.1 -14.2
v -4.5 0.2 -14.2
v -5 0.1 -10.2
v -4.5 0.1 -10.2
v -5 0.1 -14.2
v -4.5 0.1 -14.2
v -4.7 2.2 -10.4
v -4.6 2.2 -10.4
v -4.7 2.2 -10.8
v -4.6 2.2 -10.8
v -4.7 2.2 -11.2
v -4.6 2.2 -11.2
v -4.7 2.2 -11.6
v -4.6 2.2 -11.6
v -4.7 2.2 -12
v -4.6 2.2 -12
v -4.7 2.2 -12.4
v -4.6 2.2 -12.4
v -4.7 2.2 -12.8
v -4.6 2.2 -12.8
v -4.7 2.2 -13.2
v -4.6 2.2 -13.2
v -4.7 2.2 -13.6
v -4.6 2.2 -13.6
v -4.7 2.2 -14
v -4.6 2.2 -14
v -5 0.2 -10.2
v -4.9 0.2 -10.2
v -4.6 0.2 -10.2
v -4.5 0.2 -10.2
v -5 0.2 -14.2
v -4.9 0.2 -14.2
v -4.6 0.2 -14.2
v -4.5 0.2 -14.2
v -4.7 0.4 -10.4
v -4.6 0.4 -10.4
v -4.7 0.4 -10.8
v -4.6 0.4 -10.8
v -4.7 0.4 -11.2
v -4.6 0.4 -11.2
v -4.7 0.4 -11.6
v -4.6 0.4 -11.6
v -4.7 0.4 -12
v -4.6 0.4 -12
v -4.7 0.4 -12.4
v -4.6 0.4 -12.4
v -4.7 0.4 -12.8
v -4.6 0.4 -12.8
v -4.7 0.4 -13.2
v -4.6 0.4 -13.2
v -4.7 0.4 -13.6
v -4.6 0.4 -13.6
v -4.7 0.4 -14
v -4.6 0.4 -14
v -4.9 2.3 -10.2
v -4.6 2.3 -10.2
v -4.9 2.3 -10.3
v -4.6 2.3 -10.3
v -4.9 2.3 -14.1
v -4.6 2.3 -14.1
v -4.9 2.3 -14.2
v -4.6 2.3 -14.2
v -4.9 2.4 -10.3
v -4.6 2.4 -10.3
v -4.9 2.4 -14.1
v -4.6 2.4 -14.1

# faces
f 3/4/1 2/4/1 1/4/1
f 4/4/1 2/4/1 3/4/1
f 7/4/1 6/4/1 5/4/1
f 8/4/1 6/4/1 7/4/1
f 9/1/1 8/1/1 7/1/1
f 10/1/1 8/1/1 9/1/1
f 11/1/1 8/1/1 10/1/1
f 12/1/1 8/1/1 11/1/1
f 13/1/1 11/1/1 10/1/1
f 14/1/1 11/1/1 13/1/1
f 15/4/2 16/4/2 25/4/2
f 25/4/2 16/4/2 26/4/2
f 17/4/2 18/4/2 27/4/2
f 27/4/2 18/4/2 28/4/2
f 19/4/2 20/4/2 29/4/2
f 29/4/2 20/4/2 30/4/2
f 21/4/2 22/4/2 31/4/2
f 31/4/2 22/4/2 32/4/2
f 23/4/2 24/4/2 33/4/2
f 33/4/2 24/4/2 34/4/2
f 29/1/2 30/1/2 35/1/2
f 31/1/2 32/1/2 36/1/2
f 36/1/2 32/1/2 37/1/2
f 25/1/2 26/1/2 38/1/2
f 38/1/2 26/1/2 39/1/2
f 36/2/2 37/2/2 40/2/2
f 37/1/2 32/1/2 41/1/2
f 40/2/2 37/2/2 41/2/2
f 38/2/2 39/2/2 42/2/2
f 42/2/2 39/2/2 43/2/2
f 27/1/2 28/1/2 44/1/2
f 44/1/2 28/1/2 45/1/2
f 44/2/2 45/2/2 46/2/2
f 46/2/2 45/2/2 47/2/2
f 42/3/2 43/3/2 48/3/2
f 48/3/2 43/3/2 49/3/2
f 46/3/2 47/3/2 50/3/2
f 40/3/2 41/3/2 51/3/2
f 51/3/2 41/3/2 52/3/2
f 41/1/2 32/1/2 53/1/2
f 33/1/2 34/1/2 54/1/2
f 54/1/2 34/1/2 55/1/2
f 42/3/2 48/3/2 56/3/2
f 48/4/2 49/4/2 56/4/2
f 56/4/2 49/4/2 57/4/2
f 46/3/2 50/3/2 58/3/2
f 51/4/2 52/4/2 59/4/2
f 52/3/2 41/3/2 60/3/2
f 59/4/2 52/4/2 60/4/2
f 54/2/2 55/2/2 61/2/2
f 55/1/2 34/1/2 62/1/2
f 61/2/2 55/2/2 62/2/2
f 56/3/2 57/3/2 63/3/2
f 42/3/2 56/3/2 63/3/2
f 63/3/2 57/3/2 64/3/2
f 59/3/2 60/3/2 65/3/2
f 60/3/2 41/3/2 66/3/2
f 65/3/2 60/3/2 66/3/2
f 61/3/2 62/3/2 67/3/2
f 62/1/2 34/1/2 68/1/2
f 67/3/2 62/3/2 68/3/2
f 63/4/2 64/4/2 69/4/2
f 42/3/2 63/3/2 69/3/2
f 69/4/2 64/4/2 70/4/2
f 44/2/2 46/2/2 71/2/2
f 46/3/2 58/3/2 71/3/2
f 71/3/2 58/3/2 72/3/2
f 65/4/2 66/4/2 73/4/2
f 66/3/2 41/3/2 74/3/2
f 73/4/2 66/4/2 74/4/2
f 67/4/2 68/4/2 75/4/2
f 68/1/2 34/1/2 76/1/2
f 75/4/2 68/4/2 76/4/2
f 69/3/2 70/3/2 77/3/2
f 42/3/2 69/3/2 77/3/2
f 77/3/2 70/3/2 78/3/2
f 71/4/2 72/4/2 79/4/2
f 44/2/2 71/2/2 79/2/2
f 79/4/2 72/4/2 80/4/2
f 73/3/2 74/3/2 81/3/2
f 74/3/2 41/3/2 82/3/2
f 81/3/2 74/3/2 82/3/2
f 77/4/2 78/4/2 83/4/2
f 42/3/2 77/3/2 83/3/2
f 83/4/2 78/4/2 84/4/2
f 81/4/2 82/4/2 85/4/2
f 82/3/2 41/3/2 86/3/2
f 85/4/2 82/4/2 86/4/2
f 75/3/2 76/3/2 87/3/2
f 87/3/2 76/3/2 88/3/2
f 25/1/2 38/1/2 89/1/2
f 38/2/2 42/2/2 89/2/2
f 83/3/2 84/3/2 90/3/2
f 89/2/2 42/2/2 90/2/2
f 42/3/2 83/3/2 90/3/2
f 90/3/2 84/3/2 91/3/2
f 79/3/2 80/3/2 92/3/2
f 92/3/2 80/3/2 93/3/2
f 29/1/2 35/1/2 94/1/2
f 85/3/2 86/3/2 95/3/2
f 41/1/2 53/1/2 96/1/2
f 95/3/2 86/3/2 96/3/2
f 86/3/2 41/3/2 96/3/2
f 87/4/2 88/4/2 97/4/2
f 88/3/2 76/3/2 98/3/2
f 97/4/2 88/4/2 98/4/2
f 92/4/2 93/4/2 99/4/2
f 79/3/2 92/3/2 99/3/2
f 99/4/2 93/4/2 100/4/2
f 27/1/2 44/1/2 101/1/2
f 44/2/2 79/2/2 101/2/2
f 99/3/2 100/3/2 102/3/2
f 101/2/2 79/2/2 102/2/2
f 79/3/2 99/3/2 102/3/2
f 102/3/2 100/3/2 103/3/2
f 96/1/2 53/1/2 104/1/2
f 95/1/2 96/1/2 104/1/2
f 97/3/2 98/3/2 105/3/2
f 98/3/2 76/3/2 106/3/2
f 105/3/2 98/3/2 106/3/2
f 76/1/2 34/1/2 106/1/2
f 89/1/2 90/1/2 107/1/2
f 25/1/2 89/1/2 107/1/2
f 90/1/2 91/1/2 107/1/2
f 107/1/2 91/1/2 108/1/2
f 102/1/2 103/1/2 109/1/2
f 101/1/2 102/1/2 109/1/2
f 27/1/2 101/1/2 109/1/2
f 109/1/2 103/1/2 110/1/2
f 29/1/2 94/1/2 111/1/2
f 111/1/2 94/1/2 112/1/2
f 95/1/2 104/1/2 113/1/2
f 113/1/2 104/1/2 114/1/2
f 105/1/2 106/1/2 115/1/2
f 106/1/2 34/1/2 116/1/2
f 115/1/2 106/1/2 116/1/2
f 117/4/2 118/4/2 119/4/2
f 119/4/2 118/4/2 120/4/2
f 120/4/2 118/4/2 121/4/2
f 121/4/2 118/4/2 122/4/2
f 122/4/2 118/4/2 123/4/2
f 123/4/2 118/4/2 124/4/2
f 124/4/2 118/4/2 125/4/2
f 125/4/2 118/4/2 126/4/2
f 126/4/2 118/4/2 127/4/2
f 127/4/2 118/4/2 128/4/2
f 117/4/2 119/4/2 129/4/2
f 129/4/2 119/4/2 130/4/2
f 120/4/2 121/4/2 131/4/2
f 131/4/2 121/4/2 132/4/2
f 122/4/2 123/4/2 133/4/2
f 133/4/2 123/4/2 134/4/2
f 124/4/2 125/4/2 135/4/2
f 135/4/2 125/4/2 136/4/2
f 126/4/2 127/4/2 137/4/2
f 137/4/2 127/4/2 138/4/2
f 128/4/2 118/4/2 139/4/2
f 139/4/2 118/4/2 140/4/2
f 135/1/2 136/1/2 141/1/2
f 141/1/2 136/1/2 142/1/2
f 131/1/2 132/1/2 143/1/2
f 143/1/2 132/1/2 144/1/2
f 141/2/2 142/2/2 145/2/2
f 145/2/2 142/2/2 146/2/2
f 143/2/2 144/2/2 147/2/2
f 144/1/2 132/1/2 148/1/2
f 147/2/2 144/2/2 148/2/2
f 133/1/2 134/1/2 149/1/2
f 149/1/2 134/1/2 150/1/2
f 149/2/2 150/2/2 151/2/2
f 150/1/2 134/1/2 152/1/2
f 151/2/2 150/2/2 152/2/2
f 147/3/2 148/3/2 153/3/2
f 153/3/2 148/3/2 154/3/2
f 151/3/2 152/3/2 155/3/2
f 155/3/2 152/3/2 156/3/2
f 145/3/2 146/3/2 157/3/2
f 157/3/2 146/3/2 158/3/2
f 137/1/2 138/1/2 159/1/2
f 159/1/2 138/1/2 160/1/2
f 153/4/2 154/4/2 161/4/2
f 154/3/2 148/3/2 162/3/2
f 161/4/2 154/4/2 162/4/2
f 155/4/2 156/4/2 163/4/2
f 156/3/2 152/3/2 164/3/2
f 163/4/2 156/4/2 164/4/2
f 157/4/2 158/4/2 165/4/2
f 145/3/2 157/3/2 165/3/2
f 165/4/2 158/4/2 166/4/2
f 159/2/2 160/2/2 167/2/2
f 167/2/2 160/2/2 168/2/2
f 161/3/2 162/3/2 169/3/2
f 162/3/2 148/3/2 170/3/2
f 169/3/2 162/3/2 170/3/2
f 165/3/2 166/3/2 171/3/2
f 145/3/2 165/3/2 171/3/2
f 171/3/2 166/3/2 172/3/2
f 159/2/2 167/2/2 173/2/2
f 167/3/2 168/3/2 173/3/2
f 173/3/2 168/3/2 174/3/2
f 169/4/2 170/4/2 175/4/2
f 170/3/2 148/3/2 176/3/2
f 175/4/2 170/4/2 176/4/2
f 163/3/2 164/3/2 177/3/2
f 164/3/2 152/3/2 178/3/2
f 177/3/2 164/3/2 178/3/2
f 171/4/2 172/4/2 179/4/2
f 145/3/2 171/3/2 179/3/2
f 179/4/2 172/4/2 180/4/2
f 159/2/2 173/2/2 181/2/2
f 173/4/2 174/4/2 181/4/2
f 181/4/2 174/4/2 182/4/2
f 175/3/2 176/3/2 183/3/2
f 176/3/2 148/3/2 184/3/2
f 183/3/2 176/3/2 184/3/2
f 177/4/2 178/4/2 185/4/2
f 178/3/2 152/3/2 186/3/2
f 185/4/2 178/4/2 186/4/2
f 179/3/2 180/3/2 187/3/2
f 145/3/2 179/3/2 187/3/2
f 187/3/2 180/3/2 188/3/2
f 183/4/2 184/4/2 189/4/2
f 184/3/2 148/3/2 190/3/2
f 189/4/2 184/4/2 190/4/2
f 145/3/2 187/3/2 191/3/2
f 187/4/2 188/4/2 191/4/2
f 191/4/2 188/4/2 192/4/2
f 181/3/2 182/3/2 193/3/2
f 193/3/2 182/3/2 194/3/2
f 189/3/2 190/3/2 195/3/2
f 148/1/2 132/1/2 196/1/2
f 195/3/2 190/3/2 196/3/2
f 190/3/2 148/3/2 196/3/2
f 185/3/2 186/3/2 197/3/2
f 186/3/2 152/3/2 198/3/2
f 197/3/2 186/3/2 198/3/2
f 141/2/2 145/2/2 199/2/2
f 191/3/2 192/3/2 200/3/2
f 199/2/2 145/2/2 200/2/2
f 145/3/2 191/3/2 200/3/2
f 200/3/2 192/3/2 201/3/2
f 193/4/2 194/4/2 202/4/2
f 181/3/2 193/3/2 202/3/2
f 202/4/2 194/4/2 203/4/2
f 197/4/2 198/4/2 204/4/2
f 198/3/2 152/3/2 205/3/2
f 204/4/2 198/4/2 205/4/2
f 204/3/2 205/3/2 206/3/2
f 152/1/2 134/1/2 207/1/2
f 206/3/2 205/3/2 207/3/2
f 205/3/2 152/3/2 207/3/2
f 159/2/2 181/2/2 208/2/2
f 181/3/2 202/3/2 209/3/2
f 208/2/2 181/2/2 209/2/2
f 202/3/2 203/3/2 209/3/2
f 209/3/2 203/3/2 210/3/2
f 129/1/2 130/1/2 211/1/2
f 195/1/2 196/1/2 212/1/2
f 196/1/2 132/1/2 213/1/2
f 212/1/2 196/1/2 213/1/2
f 206/1/2 207/1/2 214/1/2
f 207/1/2 134/1/2 215/1/2
f 214/1/2 207/1/2 215/1/2
f 200/1/2 201/1/2 216/1/2
f 199/1/2 200/1/2 216/1/2
f 216/1/2 201/1/2 217/1/2
f 208/1/2 209/1/2 218/1/2
f 209/1/2 210/1/2 218/1/2
f 218/1/2 210/1/2 219/1/2
f 139/1/2 140/1/2 220/1/2
f 218/1/2 219/1/2 221/1/2
f 219/1/2 220/1/2 221/1/2
f 217/1/2 218/1/2 221/1/2
f 211/1/2 212/1/2 221/1/2
f 215/1/2 216/1/2 221/1/2
f 129/1/2 211/1/2 221/1/2
f 213/1/2 214/1/2 221/1/2
f 212/1/2 213/1/2 221/1/2
f 214/1/2 215/1/2 221/1/2
f 216/1/2 217/1/2 221/1/2
f 221/1/2 220/1/2 222/1/2
f 220/1/2 140/1/2 223/1/2
f 222/1/2 220/1/2 223/1/2
f 223/1/2 140/1/2 224/1/2
f 222/1/2 223/1/2 225/1/2
f 225/1/2 223/1/2 226/1/2
f 227/4/2 228/4/2 229/4/2
f 229/4/2 228/4/2 230/4/2
f 233/4/3 232/4/3 231/4/3
f 236/4/3 233/4/3 231/4/3
f 236/4/3 234/4/3 233/4/3
f 237/1/3 235/1/3 234/1/3
f 237/4/3 234/4/3 236/4/3
f 238/1/3 235/1/3 237/1/3
f 239/4/3 236/4/3 231/4/3
f 240/4/3 236/4/3 239/4/3
f 243/1/3 242/1/3 241/1/3
f 244/1/3 242/1/3 243/1/3
f 257/4/3 246/4/3 245/4/3
f 258/1/3 247/1/3 246/1/3
f 258/4/3 246/4/3 257/4/3
f 259/2/3 248/2/3 247/2/3
f 259/1/3 247/1/3 258/1/3
f 260/3/3 249/3/3 248/3/3
f 260/2/3 248/2/3 259/2/3
f 261/4/3 250/4/3 249/4/3
f 261/3/3 249/3/3 260/3/3
f 262/3/3 251/3/3 250/3/3
f 262/4/3 250/4/3 261/4/3
f 263/4/3 252/4/3 251/4/3
f 263/3/3 251/3/3 262/3/3
f 264/3/3 253/3/3 252/3/3
f 264/4/3 252/4/3 263/4/3
f 265/4/3 254/4/3 253/4/3
f 265/3/3 253/3/3 264/3/3
f 266/3/3 255/3/3 254/3/3
f 266/4/3 254/4/3 265/4/3
f 267/1/3 256/1/3 255/1/3
f 267/3/3 255/3/3 266/3/3
f 268/1/3 256/1/3 267/1/3
f 281/4/3 270/4/3 269/4/3
f 282/1/3 271/1/3 270/1/3
f 282/4/3 270/4/3 281/4/3
f 283/2/3 272/2/3 271/2/3
f 283/1/3 271/1/3 282/1/3
f 284/3/3 273/3/3 272/3/3
f 284/2/3 272/2/3 283/2/3
f 285/4/3 274/4/3 273/4/3
f 285/3/3 273/3/3 284/3/3
f 286/3/3 275/3/3 274/3/3
f 286/4/3 274/4/3 285/4/3
f 287/4/3 276/4/3 275/4/3
f 287/3/3 275/3/3 286/3/3
f 288/3/3 277/3/3 276/3/3
f 288/4/3 276/4/3 287/4/3
f 289/4/3 278/4/3 277/4/3
f 289/3/3 277/3/3 288/3/3
f 290/3/3 279/3/3 278/3/3
f 290/4/3 278/4/3 289/4/3
f 291/1/3 280/1/3 279/1/3
f 291/3/3 279/3/3 290/3/3
f 292/1/3 280/1/3 291/1/3
f 298/4/3 294/4/3 293/4/3
f 299/1/3 295/1/3 294/1/3
f 299/4/3 294/4/3 298/4/3
f 300/2/3 296/2/3 295/2/3
f 300/1/3 295/1/3 299/1/3
f 301/1/3 297/1/3 296/1/3
f 301/2/3 296/2/3 300/2/3
f 302/1/3 297/1/3 301/1/3
f 308/4/3 304/4/3 303/4/3
f 309/1/3 305/1/3 304/1/3
f 309/4/3 304/4/3 308/4/3
f 310/2/3 306/2/3 305/2/3
f 310/1/3 305/1/3 309/1/3
f 311/1/3 307/1/3 306/1/3
f 311/2/3 306/2/3 310/2/3
f 312/1/3 307/1/3 311/1/3
f 316/4/3 314/4/3 313/4/3
f 317/1/3 315/1/3 314/1/3
f 317/4/3 314/4/3 316/4/3
f 318/1/3 315/1/3 317/1/3
f 319/4/4 320/4/4 322/4/4
f 320/1/4 321/1/4 323/1/4
f 322/4/4 320/4/4 323/4/4
f 323/1/4 321/1/4 324/1/4
f 325/4/4 326/4/4 328/4/4
f 326/1/4 327/1/4 329/1/4
f 328/4/4 326/4/4 329/4/4
f 329/1/4 327/1/4 330/1/4
f 331/4/4 332/4/4 334/4/4
f 332/1/4 333/1/4 335/1/4
f 334/4/4 332/4/4 335/4/4
f 335/1/4 333/1/4 336/1/4
f 337/4/4 338/4/4 349/4/4
f 338/1/4 339/1/4 350/1/4
f 349/4/4 338/4/4 350/4/4
f 339/2/4 340/2/4 351/2/4
f 350/1/4 339/1/4 351/1/4
f 340/3/4 341/3/4 352/3/4
f 351/2/4 340/2/4 352/2/4
f 341/4/4 342/4/4 353/4/4
f 352/3/4 341/3/4 353/3/4
f 342/3/4 343/3/4 354/3/4
f 353/4/4 342/4/4 354/4/4
f 343/4/4 344/4/4 355/4/4
f 354/3/4 343/3/4 355/3/4
f 344/3/4 345/3/4 356/3/4
f 355/4/4 344/4/4 356/4/4
f 345/4/4 346/4/4 357/4/4
f 356/3/4 345/3/4 357/3/4
f 346/3/4 347/3/4 358/3/4
f 357/4/4 346/4/4 358/4/4
f 347/1/4 348/1/4 359/1/4
f 358/3/4 347/3/4 359/3/4
f 359/1/4 348/1/4 360/1/4
f 361/4/4 362/4/4 371/4/4
f 362/1/4 363/1/4 372/1/4
f 371/4/4 362/4/4 372/4/4
f 363/2/4 364/2/4 373/2/4
f 372/1/4 363/1/4 373/1/4
f 364/3/4 365/3/4 374/3/4
f 373/2/4 364/2/4 374/2/4
f 365/4/4 366/4/4 375/4/4
f 374/3/4 365/3/4 375/3/4
f 366/3/4 367/3/4 376/3/4
f 375/4/4 366/4/4 376/4/4
f 367/4/4 368/4/4 377/4/4
f 376/3/4 367/3/4 377/3/4
f 368/3/4 369/3/4 378/3/4
f 377/4/4 368/4/4 378/4/4
f 369/1/4 370/1/4 379/1/4
f 378/3/4 369/3/4 379/3/4
f 379/1/4 370/1/4 380/1/4
f 381/1/4 382/1/4 383/1/4
f 383/1/4 382/1/4 384/1/4
f 385/4/4 386/4/4 387/4/4
f 385/4/4 387/4/4 390/4/4
f 387/4/4 388/4/4 390/4/4
f 388/1/4 389/1/4 391/1/4
f 390/4/4 388/4/4 391/4/4
f 391/1/4 389/1/4 392/1/4
f 385/4/4 390/4/4 393/4/4
f 393/4/4 390/4/4 394/4/4
f 397/4/5 396/4/5 395/4/5
f 398/4/5 396/4/5 397/4/5
f 401/1/5 400/1/5 399/1/5
f 402/1/5 400/1/5 401/1/5
f 405/1/5 404/1/5 403/1/5
f 406/1/5 404/1/5 405/1/5
f 409/1/5 408/1/5 407/1/5
f 410/1/5 408/1/5 409/1/5
f 413/1/5 412/1/5 411/1/5
f 414/1/5 412/1/5 413/1/5
f 417/1/5 416/1/5 415/1/5
f 418/1/5 416/1/5 417/1/5
f 419/4/6 420/4/6 423/4/6
f 423/4/6 420/4/6 424/4/6
f 421/4/6 422/4/6 425/4/6
f 425/4/6 422/4/6 426/4/6
f 427/4/6 428/4/6 429/4/6
f 429/4/6 428/4/6 430/4/6
f 431/4/6 432/4/6 433/4/6
f 433/4/6 432/4/6 434/4/6
f 435/4/6 436/4/6 437/4/6
f 437/4/6 436/4/6 438/4/6
f 439/4/6 440/4/6 441/4/6
f 441/4/6 440/4/6 442/4/6
f 443/4/6 444/4/6 445/4/6
f 445/4/6 444/4/6 446/4/6
f 447/1/6 448/1/6 449/1/6
f 449/1/6 448/1/6 450/1/6
f 451/1/6 452/1/6 453/1/6
f 453/1/6 452/1/6 454/1/6
f 455/1/6 456/1/6 457/1/6
f 457/1/6 456/1/6 458/1/6
