# MagicaVoxel @ Ephtracy

# group
o Znak

# material
mtllib All-6-Znak.mtl
usemtl palette

# normals
vn -1 0 0
vn 1 0 0
vn 0 0 1
vn 0 0 -1
vn 0 -1 0
vn 0 1 0

# texcoords
vt 0.00195312 0.5
vt 0.576172 0.5
vt 0.966797 0.5
vt 0.986328 0.5

# verts
v 7.7 2.6 -5.8
v 7.7 2.6 -5.9
v 7.7 3.1 -5.8
v 7.7 3.1 -5.9
v 7.8 2.5 -5.8
v 7.8 2.5 -5.9
v 7.8 2.6 -5.8
v 7.8 2.6 -5.9
v 7.8 3.1 -5.8
v 7.8 3.1 -5.9
v 7.8 3.2 -5.8
v 7.8 3.2 -5.9
v 8 0 -5.8
v 8 0 -5.9
v 8 2.5 -5.8
v 8 2.5 -5.9
v 8.1 0 -5.8
v 8.1 0 -5.9
v 8.1 2.5 -5.8
v 8.1 2.5 -5.9
v 8.3 2.5 -5.8
v 8.3 2.5 -5.9
v 8.3 2.6 -5.8
v 8.3 2.6 -5.9
v 8.3 3.1 -5.8
v 8.3 3.1 -5.9
v 8.3 3.2 -5.8
v 8.3 3.2 -5.9
v 8.4 2.6 -5.8
v 8.4 2.6 -5.9
v 8.4 3.1 -5.8
v 8.4 3.1 -5.9
v 7.7 2.6 -5.8
v 7.7 3.1 -5.8
v 7.8 2.5 -5.8
v 7.8 2.6 -5.8
v 7.8 3.1 -5.8
v 7.8 3.2 -5.8
v 7.9 2.7 -5.8
v 7.9 2.9 -5.8
v 8 0 -5.8
v 8 2.5 -5.8
v 8 2.7 -5.8
v 8 2.9 -5.8
v 8 3 -5.8
v 8.1 0 -5.8
v 8.1 2.5 -5.8
v 8.2 2.9 -5.8
v 8.2 3 -5.8
v 8.3 2.5 -5.8
v 8.3 2.6 -5.8
v 8.3 3.1 -5.8
v 8.3 3.2 -5.8
v 8.4 2.6 -5.8
v 8.4 3.1 -5.8
v 7.7 2.6 -5.9
v 7.7 3.1 -5.9
v 7.8 2.5 -5.9
v 7.8 2.6 -5.9
v 7.8 3.1 -5.9
v 7.8 3.2 -5.9
v 7.9 2.7 -5.9
v 7.9 2.9 -5.9
v 8 0 -5.9
v 8 2.5 -5.9
v 8 2.7 -5.9
v 8 2.9 -5.9
v 8 3 -5.9
v 8.1 0 -5.9
v 8.1 2.5 -5.9
v 8.2 2.9 -5.9
v 8.2 3 -5.9
v 8.3 2.5 -5.9
v 8.3 2.6 -5.9
v 8.3 3.1 -5.9
v 8.3 3.2 -5.9
v 8.4 2.6 -5.9
v 8.4 3.1 -5.9
v 8 0 -5.8
v 8.1 0 -5.8
v 8 0 -5.9
v 8.1 0 -5.9
v 7.8 2.5 -5.8
v 8 2.5 -5.8
v 8.1 2.5 -5.8
v 8.3 2.5 -5.8
v 7.8 2.5 -5.9
v 8 2.5 -5.9
v 8.1 2.5 -5.9
v 8.3 2.5 -5.9
v 7.7 2.6 -5.8
v 7.8 2.6 -5.8
v 8.3 2.6 -5.8
v 8.4 2.6 -5.8
v 7.7 2.6 -5.9
v 7.8 2.6 -5.9
v 8.3 2.6 -5.9
v 8.4 2.6 -5.9
v 7.7 3.1 -5.8
v 7.8 3.1 -5.8
v 8.3 3.1 -5.8
v 8.4 3.1 -5.8
v 7.7 3.1 -5.9
v 7.8 3.1 -5.9
v 8.3 3.1 -5.9
v 8.4 3.1 -5.9
v 7.8 3.2 -5.8
v 8.3 3.2 -5.8
v 7.8 3.2 -5.9
v 8.3 3.2 -5.9

# faces
f 3/4/1 2/4/1 1/4/1
f 4/4/1 2/4/1 3/4/1
f 7/4/1 6/4/1 5/4/1
f 8/4/1 6/4/1 7/4/1
f 11/4/1 10/4/1 9/4/1
f 12/4/1 10/4/1 11/4/1
f 15/3/1 14/3/1 13/3/1
f 16/3/1 14/3/1 15/3/1
f 17/3/2 18/3/2 19/3/2
f 19/3/2 18/3/2 20/3/2
f 21/4/2 22/4/2 23/4/2
f 23/4/2 22/4/2 24/4/2
f 25/4/2 26/4/2 27/4/2
f 27/4/2 26/4/2 28/4/2
f 29/4/2 30/4/2 31/4/2
f 31/4/2 30/4/2 32/4/2
f 36/4/3 34/4/3 33/4/3
f 37/4/3 34/4/3 36/4/3
f 39/2/3 37/2/3 36/2/3
f 40/2/3 37/2/3 39/2/3
f 42/4/3 36/4/3 35/4/3
f 43/2/3 39/2/3 36/2/3
f 43/1/3 40/1/3 39/1/3
f 44/2/3 37/2/3 40/2/3
f 44/1/3 40/1/3 43/1/3
f 45/2/3 37/2/3 44/2/3
f 46/3/3 42/3/3 41/3/3
f 47/4/3 36/4/3 42/4/3
f 47/3/3 42/3/3 46/3/3
f 48/2/3 44/2/3 43/2/3
f 48/1/3 45/1/3 44/1/3
f 49/2/3 37/2/3 45/2/3
f 49/1/3 45/1/3 48/1/3
f 50/4/3 36/4/3 47/4/3
f 51/2/3 43/2/3 36/2/3
f 51/4/3 36/4/3 50/4/3
f 51/2/3 48/2/3 43/2/3
f 51/2/3 49/2/3 48/2/3
f 52/4/3 38/4/3 37/4/3
f 52/2/3 49/2/3 51/2/3
f 52/2/3 37/2/3 49/2/3
f 53/4/3 38/4/3 52/4/3
f 54/4/3 52/4/3 51/4/3
f 55/4/3 52/4/3 54/4/3
f 56/4/4 57/4/4 59/4/4
f 59/4/4 57/4/4 60/4/4
f 59/2/4 60/2/4 62/2/4
f 62/2/4 60/2/4 63/2/4
f 58/4/4 59/4/4 65/4/4
f 59/2/4 62/2/4 66/2/4
f 62/1/4 63/1/4 66/1/4
f 63/2/4 60/2/4 67/2/4
f 66/1/4 63/1/4 67/1/4
f 67/2/4 60/2/4 68/2/4
f 64/3/4 65/3/4 69/3/4
f 65/4/4 59/4/4 70/4/4
f 69/3/4 65/3/4 70/3/4
f 66/2/4 67/2/4 71/2/4
f 67/1/4 68/1/4 71/1/4
f 68/2/4 60/2/4 72/2/4
f 71/1/4 68/1/4 72/1/4
f 70/4/4 59/4/4 73/4/4
f 59/2/4 66/2/4 74/2/4
f 73/4/4 59/4/4 74/4/4
f 66/2/4 71/2/4 74/2/4
f 71/2/4 72/2/4 74/2/4
f 60/4/4 61/4/4 75/4/4
f 74/2/4 72/2/4 75/2/4
f 72/2/4 60/2/4 75/2/4
f 75/4/4 61/4/4 76/4/4
f 74/4/4 75/4/4 77/4/4
f 77/4/4 75/4/4 78/4/4
f 81/3/5 80/3/5 79/3/5
f 82/3/5 80/3/5 81/3/5
f 87/4/5 84/4/5 83/4/5
f 88/4/5 84/4/5 87/4/5
f 89/4/5 86/4/5 85/4/5
f 90/4/5 86/4/5 89/4/5
f 95/4/5 92/4/5 91/4/5
f 96/4/5 92/4/5 95/4/5
f 97/4/5 94/4/5 93/4/5
f 98/4/5 94/4/5 97/4/5
f 99/4/6 100/4/6 103/4/6
f 103/4/6 100/4/6 104/4/6
f 101/4/6 102/4/6 105/4/6
f 105/4/6 102/4/6 106/4/6
f 107/4/6 108/4/6 109/4/6
f 109/4/6 108/4/6 110/4/6
