# MagicaVoxel @ Ephtracy

# group
o Zabor_0

# material
mtllib All-23-Zabor_0.mtl
usemtl palette

# normals
vn -1 0 0
vn 1 0 0
vn 0 0 1
vn 0 0 -1
vn 0 -1 0
vn 0 1 0

# texcoords
vt 0.962891 0.5
vt 0.978516 0.5

# verts
v -5 0.1 2.1
v -5 0.1 -1.9
v -5 0.2 2.1
v -5 0.2 -1.9
v -4.9 0.2 2.1
v -4.9 0.2 -1.9
v -4.9 0.4 1.9
v -4.9 0.4 1.5
v -4.9 0.4 1.1
v -4.9 0.4 0.7
v -4.9 0.4 0.3
v -4.9 0.4 -0.0999999
v -4.9 0.4 -0.5
v -4.9 0.4 -0.9
v -4.9 0.4 -1.3
v -4.9 0.4 -1.7
v -4.9 0.7 2.1
v -4.9 0.7 1.9
v -4.9 0.7 1.5
v -4.9 0.7 1.1
v -4.9 0.7 0.7
v -4.9 0.7 0.3
v -4.9 0.7 -0.0999999
v -4.9 0.7 -0.5
v -4.9 0.7 -0.9
v -4.9 0.7 -1.3
v -4.9 0.7 -1.7
v -4.9 0.7 -1.9
v -4.9 2.2 1.9
v -4.9 2.2 1.5
v -4.9 2.2 1.1
v -4.9 2.2 0.7
v -4.9 2.2 0.3
v -4.9 2.2 -0.0999999
v -4.9 2.2 -0.5
v -4.9 2.2 -0.9
v -4.9 2.2 -1.3
v -4.9 2.2 -1.7
v -4.9 2.3 2.1
v -4.9 2.3 2
v -4.9 2.3 -1.8
v -4.9 2.3 -1.9
v -4.9 2.4 2
v -4.9 2.4 -1.8
v -4.8 0.4 1.9
v -4.8 0.4 1.5
v -4.8 0.4 1.1
v -4.8 0.4 0.7
v -4.8 0.4 0.3
v -4.8 0.4 -0.0999999
v -4.8 0.4 -0.5
v -4.8 0.4 -0.9
v -4.8 0.4 -1.3
v -4.8 0.4 -1.7
v -4.8 0.7 1.9
v -4.8 0.7 1.5
v -4.8 0.7 1.1
v -4.8 0.7 0.7
v -4.8 0.7 0.3
v -4.8 0.7 -0.0999999
v -4.8 0.7 -0.5
v -4.8 0.7 -0.9
v -4.8 0.7 -1.3
v -4.8 0.7 -1.7
v -4.8 2.2 1.9
v -4.8 2.2 1.5
v -4.8 2.2 1.1
v -4.8 2.2 0.7
v -4.8 2.2 0.3
v -4.8 2.2 -0.0999999
v -4.8 2.2 -0.5
v -4.8 2.2 -0.9
v -4.8 2.2 -1.3
v -4.8 2.2 -1.7
v -4.7 0.4 1.9
v -4.7 0.4 1.5
v -4.7 0.4 1.1
v -4.7 0.4 0.7
v -4.7 0.4 0.3
v -4.7 0.4 -0.0999999
v -4.7 0.4 -0.5
v -4.7 0.4 -0.9
v -4.7 0.4 -1.3
v -4.7 0.4 -1.7
v -4.7 0.7 1.9
v -4.7 0.7 1.5
v -4.7 0.7 1.1
v -4.7 0.7 0.7
v -4.7 0.7 0.3
v -4.7 0.7 -0.0999999
v -4.7 0.7 -0.5
v -4.7 0.7 -0.9
v -4.7 0.7 -1.3
v -4.7 0.7 -1.7
v -4.7 2.2 1.9
v -4.7 2.2 1.5
v -4.7 2.2 1.1
v -4.7 2.2 0.7
v -4.7 2.2 0.3
v -4.7 2.2 -0.0999999
v -4.7 2.2 -0.5
v -4.7 2.2 -0.9
v -4.7 2.2 -1.3
v -4.7 2.2 -1.7
v -4.6 0.2 2.1
v -4.6 0.2 -1.9
v -4.6 0.4 1.9
v -4.6 0.4 1.5
v -4.6 0.4 1.1
v -4.6 0.4 0.7
v -4.6 0.4 0.3
v -4.6 0.4 -0.0999999
v -4.6 0.4 -0.5
v -4.6 0.4 -0.9
v -4.6 0.4 -1.3
v -4.6 0.4 -1.7
v -4.6 0.7 2.1
v -4.6 0.7 1.9
v -4.6 0.7 1.5
v -4.6 0.7 1.1
v -4.6 0.7 0.7
v -4.6 0.7 0.3
v -4.6 0.7 -0.0999999
v -4.6 0.7 -0.5
v -4.6 0.7 -0.9
v -4.6 0.7 -1.3
v -4.6 0.7 -1.7
v -4.6 0.7 -1.9
v -4.6 2.2 1.9
v -4.6 2.2 1.5
v -4.6 2.2 1.1
v -4.6 2.2 0.7
v -4.6 2.2 0.3
v -4.6 2.2 -0.0999999
v -4.6 2.2 -0.5
v -4.6 2.2 -0.9
v -4.6 2.2 -1.3
v -4.6 2.2 -1.7
v -4.6 2.3 2.1
v -4.6 2.3 2
v -4.6 2.3 -1.8
v -4.6 2.3 -1.9
v -4.6 2.4 2
v -4.6 2.4 -1.8
v -4.5 0.1 2.1
v -4.5 0.1 -1.9
v -4.5 0.2 2.1
v -4.5 0.2 -1.9
v -5 0.1 2.1
v -5 0.2 2.1
v -4.9 0.2 2.1
v -4.9 0.7 2.1
v -4.9 2.3 2.1
v -4.6 0.2 2.1
v -4.6 0.7 2.1
v -4.6 2.3 2.1
v -4.5 0.1 2.1
v -4.5 0.2 2.1
v -4.9 2.3 2
v -4.9 2.4 2
v -4.6 2.3 2
v -4.6 2.4 2
v -4.9 0.4 1.5
v -4.9 0.7 1.5
v -4.9 2.2 1.5
v -4.8 0.4 1.5
v -4.8 0.7 1.5
v -4.8 2.2 1.5
v -4.7 0.4 1.5
v -4.7 0.7 1.5
v -4.7 2.2 1.5
v -4.6 0.4 1.5
v -4.6 0.7 1.5
v -4.6 2.2 1.5
v -4.9 0.4 0.7
v -4.9 0.7 0.7
v -4.9 2.2 0.7
v -4.8 0.4 0.7
v -4.8 0.7 0.7
v -4.8 2.2 0.7
v -4.7 0.4 0.7
v -4.7 0.7 0.7
v -4.7 2.2 0.7
v -4.6 0.4 0.7
v -4.6 0.7 0.7
v -4.6 2.2 0.7
v -4.9 0.4 -0.0999999
v -4.9 0.7 -0.0999999
v -4.9 2.2 -0.0999999
v -4.8 0.4 -0.0999999
v -4.8 0.7 -0.0999999
v -4.8 2.2 -0.0999999
v -4.7 0.4 -0.0999999
v -4.7 0.7 -0.0999999
v -4.7 2.2 -0.0999999
v -4.6 0.4 -0.0999999
v -4.6 0.7 -0.0999999
v -4.6 2.2 -0.0999999
v -4.9 0.4 -0.9
v -4.9 0.7 -0.9
v -4.9 2.2 -0.9
v -4.8 0.4 -0.9
v -4.8 0.7 -0.9
v -4.8 2.2 -0.9
v -4.7 0.4 -0.9
v -4.7 0.7 -0.9
v -4.7 2.2 -0.9
v -4.6 0.4 -0.9
v -4.6 0.7 -0.9
v -4.6 2.2 -0.9
v -4.9 0.4 -1.7
v -4.9 0.7 -1.7
v -4.9 2.2 -1.7
v -4.8 0.4 -1.7
v -4.8 0.7 -1.7
v -4.8 2.2 -1.7
v -4.7 0.4 -1.7
v -4.7 0.7 -1.7
v -4.7 2.2 -1.7
v -4.6 0.4 -1.7
v -4.6 0.7 -1.7
v -4.6 2.2 -1.7
v -4.9 0.4 1.9
v -4.9 0.7 1.9
v -4.9 2.2 1.9
v -4.8 0.4 1.9
v -4.8 0.7 1.9
v -4.8 2.2 1.9
v -4.7 0.4 1.9
v -4.7 0.7 1.9
v -4.7 2.2 1.9
v -4.6 0.4 1.9
v -4.6 0.7 1.9
v -4.6 2.2 1.9
v -4.9 0.4 1.1
v -4.9 0.7 1.1
v -4.9 2.2 1.1
v -4.8 0.4 1.1
v -4.8 0.7 1.1
v -4.8 2.2 1.1
v -4.7 0.4 1.1
v -4.7 0.7 1.1
v -4.7 2.2 1.1
v -4.6 0.4 1.1
v -4.6 0.7 1.1
v -4.6 2.2 1.1
v -4.9 0.4 0.3
v -4.9 0.7 0.3
v -4.9 2.2 0.3
v -4.8 0.4 0.3
v -4.8 0.7 0.3
v -4.8 2.2 0.3
v -4.7 0.4 0.3
v -4.7 0.7 0.3
v -4.7 2.2 0.3
v -4.6 0.4 0.3
v -4.6 0.7 0.3
v -4.6 2.2 0.3
v -4.9 0.4 -0.5
v -4.9 0.7 -0.5
v -4.9 2.2 -0.5
v -4.8 0.4 -0.5
v -4.8 0.7 -0.5
v -4.8 2.2 -0.5
v -4.7 0.4 -0.5
v -4.7 0.7 -0.5
v -4.7 2.2 -0.5
v -4.6 0.4 -0.5
v -4.6 0.7 -0.5
v -4.6 2.2 -0.5
v -4.9 0.4 -1.3
v -4.9 0.7 -1.3
v -4.9 2.2 -1.3
v -4.8 0.4 -1.3
v -4.8 0.7 -1.3
v -4.8 2.2 -1.3
v -4.7 0.4 -1.3
v -4.7 0.7 -1.3
v -4.7 2.2 -1.3
v -4.6 0.4 -1.3
v -4.6 0.7 -1.3
v -4.6 2.2 -1.3
v -4.9 2.3 -1.8
v -4.9 2.4 -1.8
v -4.6 2.3 -1.8
v -4.6 2.4 -1.8
v -5 0.1 -1.9
v -5 0.2 -1.9
v -4.9 0.2 -1.9
v -4.9 0.7 -1.9
v -4.9 2.3 -1.9
v -4.6 0.2 -1.9
v -4.6 0.7 -1.9
v -4.6 2.3 -1.9
v -4.5 0.1 -1.9
v -4.5 0.2 -1.9
v -5 0.1 2.1
v -4.5 0.1 2.1
v -5 0.1 -1.9
v -4.5 0.1 -1.9
v -4.9 2.2 1.9
v -4.8 2.2 1.9
v -4.7 2.2 1.9
v -4.6 2.2 1.9
v -4.9 2.2 1.5
v -4.8 2.2 1.5
v -4.7 2.2 1.5
v -4.6 2.2 1.5
v -4.9 2.2 1.1
v -4.8 2.2 1.1
v -4.7 2.2 1.1
v -4.6 2.2 1.1
v -4.9 2.2 0.7
v -4.8 2.2 0.7
v -4.7 2.2 0.7
v -4.6 2.2 0.7
v -4.9 2.2 0.3
v -4.8 2.2 0.3
v -4.7 2.2 0.3
v -4.6 2.2 0.3
v -4.9 2.2 -0.0999999
v -4.8 2.2 -0.0999999
v -4.7 2.2 -0.0999999
v -4.6 2.2 -0.0999999
v -4.9 2.2 -0.5
v -4.8 2.2 -0.5
v -4.7 2.2 -0.5
v -4.6 2.2 -0.5
v -4.9 2.2 -0.9
v -4.8 2.2 -0.9
v -4.7 2.2 -0.9
v -4.6 2.2 -0.9
v -4.9 2.2 -1.3
v -4.8 2.2 -1.3
v -4.7 2.2 -1.3
v -4.6 2.2 -1.3
v -4.9 2.2 -1.7
v -4.8 2.2 -1.7
v -4.7 2.2 -1.7
v -4.6 2.2 -1.7
v -5 0.2 2.1
v -4.9 0.2 2.1
v -4.6 0.2 2.1
v -4.5 0.2 2.1
v -5 0.2 -1.9
v -4.9 0.2 -1.9
v -4.6 0.2 -1.9
v -4.5 0.2 -1.9
v -4.9 0.4 1.9
v -4.8 0.4 1.9
v -4.7 0.4 1.9
v -4.6 0.4 1.9
v -4.9 0.4 1.5
v -4.8 0.4 1.5
v -4.7 0.4 1.5
v -4.6 0.4 1.5
v -4.9 0.4 1.1
v -4.8 0.4 1.1
v -4.7 0.4 1.1
v -4.6 0.4 1.1
v -4.9 0.4 0.7
v -4.8 0.4 0.7
v -4.7 0.4 0.7
v -4.6 0.4 0.7
v -4.9 0.4 0.3
v -4.8 0.4 0.3
v -4.7 0.4 0.3
v -4.6 0.4 0.3
v -4.9 0.4 -0.0999999
v -4.8 0.4 -0.0999999
v -4.7 0.4 -0.0999999
v -4.6 0.4 -0.0999999
v -4.9 0.4 -0.5
v -4.8 0.4 -0.5
v -4.7 0.4 -0.5
v -4.6 0.4 -0.5
v -4.9 0.4 -0.9
v -4.8 0.4 -0.9
v -4.7 0.4 -0.9
v -4.6 0.4 -0.9
v -4.9 0.4 -1.3
v -4.8 0.4 -1.3
v -4.7 0.4 -1.3
v -4.6 0.4 -1.3
v -4.9 0.4 -1.7
v -4.8 0.4 -1.7
v -4.7 0.4 -1.7
v -4.6 0.4 -1.7
v -4.9 2.3 2.1
v -4.6 2.3 2.1
v -4.9 2.3 2
v -4.6 2.3 2
v -4.9 2.3 -1.8
v -4.6 2.3 -1.8
v -4.9 2.3 -1.9
v -4.6 2.3 -1.9
v -4.9 2.4 2
v -4.6 2.4 2
v -4.9 2.4 -1.8
v -4.6 2.4 -1.8

# faces
f 3/2/1 2/2/1 1/2/1
f 4/2/1 2/2/1 3/2/1
f 7/2/1 6/2/1 5/2/1
f 8/2/1 6/2/1 7/2/1
f 9/2/1 6/2/1 8/2/1
f 10/2/1 6/2/1 9/2/1
f 11/2/1 6/2/1 10/2/1
f 12/2/1 6/2/1 11/2/1
f 13/2/1 6/2/1 12/2/1
f 14/2/1 6/2/1 13/2/1
f 15/2/1 6/2/1 14/2/1
f 16/2/1 6/2/1 15/2/1
f 17/2/1 7/2/1 5/2/1
f 18/2/1 7/2/1 17/2/1
f 19/2/1 9/2/1 8/2/1
f 20/2/1 9/2/1 19/2/1
f 21/2/1 11/2/1 10/2/1
f 22/2/1 11/2/1 21/2/1
f 23/2/1 13/2/1 12/2/1
f 24/2/1 13/2/1 23/2/1
f 25/2/1 15/2/1 14/2/1
f 26/2/1 15/2/1 25/2/1
f 27/2/1 6/2/1 16/2/1
f 28/2/1 6/2/1 27/2/1
f 29/1/1 18/1/1 17/1/1
f 30/1/1 20/1/1 19/1/1
f 31/1/1 20/1/1 30/1/1
f 32/1/1 22/1/1 21/1/1
f 33/1/1 22/1/1 32/1/1
f 34/1/1 24/1/1 23/1/1
f 35/1/1 24/1/1 34/1/1
f 36/1/1 26/1/1 25/1/1
f 37/1/1 26/1/1 36/1/1
f 38/1/1 28/1/1 27/1/1
f 39/1/1 35/1/1 34/1/1
f 39/1/1 38/1/1 37/1/1
f 39/1/1 33/1/1 32/1/1
f 39/1/1 31/1/1 30/1/1
f 39/1/1 36/1/1 35/1/1
f 39/1/1 29/1/1 17/1/1
f 39/1/1 34/1/1 33/1/1
f 39/1/1 37/1/1 36/1/1
f 39/1/1 32/1/1 31/1/1
f 39/1/1 30/1/1 29/1/1
f 40/1/1 38/1/1 39/1/1
f 41/1/1 28/1/1 38/1/1
f 41/1/1 38/1/1 40/1/1
f 42/1/1 28/1/1 41/1/1
f 43/1/1 41/1/1 40/1/1
f 44/1/1 41/1/1 43/1/1
f 55/2/1 46/2/1 45/2/1
f 56/2/1 46/2/1 55/2/1
f 57/2/1 48/2/1 47/2/1
f 58/2/1 48/2/1 57/2/1
f 59/2/1 50/2/1 49/2/1
f 60/2/1 50/2/1 59/2/1
f 61/2/1 52/2/1 51/2/1
f 62/2/1 52/2/1 61/2/1
f 63/2/1 54/2/1 53/2/1
f 64/2/1 54/2/1 63/2/1
f 65/1/1 56/1/1 55/1/1
f 66/1/1 56/1/1 65/1/1
f 67/1/1 58/1/1 57/1/1
f 68/1/1 58/1/1 67/1/1
f 69/1/1 60/1/1 59/1/1
f 70/1/1 60/1/1 69/1/1
f 71/1/1 62/1/1 61/1/1
f 72/1/1 62/1/1 71/1/1
f 73/1/1 64/1/1 63/1/1
f 74/1/1 64/1/1 73/1/1
f 75/2/2 76/2/2 85/2/2
f 85/2/2 76/2/2 86/2/2
f 77/2/2 78/2/2 87/2/2
f 87/2/2 78/2/2 88/2/2
f 79/2/2 80/2/2 89/2/2
f 89/2/2 80/2/2 90/2/2
f 81/2/2 82/2/2 91/2/2
f 91/2/2 82/2/2 92/2/2
f 83/2/2 84/2/2 93/2/2
f 93/2/2 84/2/2 94/2/2
f 85/1/2 86/1/2 95/1/2
f 95/1/2 86/1/2 96/1/2
f 87/1/2 88/1/2 97/1/2
f 97/1/2 88/1/2 98/1/2
f 89/1/2 90/1/2 99/1/2
f 99/1/2 90/1/2 100/1/2
f 91/1/2 92/1/2 101/1/2
f 101/1/2 92/1/2 102/1/2
f 93/1/2 94/1/2 103/1/2
f 103/1/2 94/1/2 104/1/2
f 105/2/2 106/2/2 107/2/2
f 107/2/2 106/2/2 108/2/2
f 108/2/2 106/2/2 109/2/2
f 109/2/2 106/2/2 110/2/2
f 110/2/2 106/2/2 111/2/2
f 111/2/2 106/2/2 112/2/2
f 112/2/2 106/2/2 113/2/2
f 113/2/2 106/2/2 114/2/2
f 114/2/2 106/2/2 115/2/2
f 115/2/2 106/2/2 116/2/2
f 105/2/2 107/2/2 117/2/2
f 117/2/2 107/2/2 118/2/2
f 108/2/2 109/2/2 119/2/2
f 119/2/2 109/2/2 120/2/2
f 110/2/2 111/2/2 121/2/2
f 121/2/2 111/2/2 122/2/2
f 112/2/2 113/2/2 123/2/2
f 123/2/2 113/2/2 124/2/2
f 114/2/2 115/2/2 125/2/2
f 125/2/2 115/2/2 126/2/2
f 116/2/2 106/2/2 127/2/2
f 127/2/2 106/2/2 128/2/2
f 117/1/2 118/1/2 129/1/2
f 119/1/2 120/1/2 130/1/2
f 130/1/2 120/1/2 131/1/2
f 121/1/2 122/1/2 132/1/2
f 132/1/2 122/1/2 133/1/2
f 123/1/2 124/1/2 134/1/2
f 134/1/2 124/1/2 135/1/2
f 125/1/2 126/1/2 136/1/2
f 136/1/2 126/1/2 137/1/2
f 127/1/2 128/1/2 138/1/2
f 134/1/2 135/1/2 139/1/2
f 137/1/2 138/1/2 139/1/2
f 132/1/2 133/1/2 139/1/2
f 130/1/2 131/1/2 139/1/2
f 135/1/2 136/1/2 139/1/2
f 117/1/2 129/1/2 139/1/2
f 133/1/2 134/1/2 139/1/2
f 136/1/2 137/1/2 139/1/2
f 131/1/2 132/1/2 139/1/2
f 129/1/2 130/1/2 139/1/2
f 139/1/2 138/1/2 140/1/2
f 138/1/2 128/1/2 141/1/2
f 140/1/2 138/1/2 141/1/2
f 141/1/2 128/1/2 142/1/2
f 140/1/2 141/1/2 143/1/2
f 143/1/2 141/1/2 144/1/2
f 145/2/2 146/2/2 147/2/2
f 147/2/2 146/2/2 148/2/2
f 151/2/3 150/2/3 149/2/3
f 154/2/3 151/2/3 149/2/3
f 154/2/3 152/2/3 151/2/3
f 155/1/3 153/1/3 152/1/3
f 155/2/3 152/2/3 154/2/3
f 156/1/3 153/1/3 155/1/3
f 157/2/3 154/2/3 149/2/3
f 158/2/3 154/2/3 157/2/3
f 161/1/3 160/1/3 159/1/3
f 162/1/3 160/1/3 161/1/3
f 166/2/3 164/2/3 163/2/3
f 167/1/3 165/1/3 164/1/3
f 167/2/3 164/2/3 166/2/3
f 168/1/3 165/1/3 167/1/3
f 172/2/3 170/2/3 169/2/3
f 173/1/3 171/1/3 170/1/3
f 173/2/3 170/2/3 172/2/3
f 174/1/3 171/1/3 173/1/3
f 178/2/3 176/2/3 175/2/3
f 179/1/3 177/1/3 176/1/3
f 179/2/3 176/2/3 178/2/3
f 180/1/3 177/1/3 179/1/3
f 184/2/3 182/2/3 181/2/3
f 185/1/3 183/1/3 182/1/3
f 185/2/3 182/2/3 184/2/3
f 186/1/3 183/1/3 185/1/3
f 190/2/3 188/2/3 187/2/3
f 191/1/3 189/1/3 188/1/3
f 191/2/3 188/2/3 190/2/3
f 192/1/3 189/1/3 191/1/3
f 196/2/3 194/2/3 193/2/3
f 197/1/3 195/1/3 194/1/3
f 197/2/3 194/2/3 196/2/3
f 198/1/3 195/1/3 197/1/3
f 202/2/3 200/2/3 199/2/3
f 203/1/3 201/1/3 200/1/3
f 203/2/3 200/2/3 202/2/3
f 204/1/3 201/1/3 203/1/3
f 208/2/3 206/2/3 205/2/3
f 209/1/3 207/1/3 206/1/3
f 209/2/3 206/2/3 208/2/3
f 210/1/3 207/1/3 209/1/3
f 214/2/3 212/2/3 211/2/3
f 215/1/3 213/1/3 212/1/3
f 215/2/3 212/2/3 214/2/3
f 216/1/3 213/1/3 215/1/3
f 220/2/3 218/2/3 217/2/3
f 221/1/3 219/1/3 218/1/3
f 221/2/3 218/2/3 220/2/3
f 222/1/3 219/1/3 221/1/3
f 223/2/4 224/2/4 226/2/4
f 224/1/4 225/1/4 227/1/4
f 226/2/4 224/2/4 227/2/4
f 227/1/4 225/1/4 228/1/4
f 229/2/4 230/2/4 232/2/4
f 230/1/4 231/1/4 233/1/4
f 232/2/4 230/2/4 233/2/4
f 233/1/4 231/1/4 234/1/4
f 235/2/4 236/2/4 238/2/4
f 236/1/4 237/1/4 239/1/4
f 238/2/4 236/2/4 239/2/4
f 239/1/4 237/1/4 240/1/4
f 241/2/4 242/2/4 244/2/4
f 242/1/4 243/1/4 245/1/4
f 244/2/4 242/2/4 245/2/4
f 245/1/4 243/1/4 246/1/4
f 247/2/4 248/2/4 250/2/4
f 248/1/4 249/1/4 251/1/4
f 250/2/4 248/2/4 251/2/4
f 251/1/4 249/1/4 252/1/4
f 253/2/4 254/2/4 256/2/4
f 254/1/4 255/1/4 257/1/4
f 256/2/4 254/2/4 257/2/4
f 257/1/4 255/1/4 258/1/4
f 259/2/4 260/2/4 262/2/4
f 260/1/4 261/1/4 263/1/4
f 262/2/4 260/2/4 263/2/4
f 263/1/4 261/1/4 264/1/4
f 265/2/4 266/2/4 268/2/4
f 266/1/4 267/1/4 269/1/4
f 268/2/4 266/2/4 269/2/4
f 269/1/4 267/1/4 270/1/4
f 271/2/4 272/2/4 274/2/4
f 272/1/4 273/1/4 275/1/4
f 274/2/4 272/2/4 275/2/4
f 275/1/4 273/1/4 276/1/4
f 277/2/4 278/2/4 280/2/4
f 278/1/4 279/1/4 281/1/4
f 280/2/4 278/2/4 281/2/4
f 281/1/4 279/1/4 282/1/4
f 283/1/4 284/1/4 285/1/4
f 285/1/4 284/1/4 286/1/4
f 287/2/4 288/2/4 289/2/4
f 287/2/4 289/2/4 292/2/4
f 289/2/4 290/2/4 292/2/4
f 290/1/4 291/1/4 293/1/4
f 292/2/4 290/2/4 293/2/4
f 293/1/4 291/1/4 294/1/4
f 287/2/4 292/2/4 295/2/4
f 295/2/4 292/2/4 296/2/4
f 299/2/5 298/2/5 297/2/5
f 300/2/5 298/2/5 299/2/5
f 305/1/5 302/1/5 301/1/5
f 306/1/5 302/1/5 305/1/5
f 307/1/5 304/1/5 303/1/5
f 308/1/5 304/1/5 307/1/5
f 313/1/5 310/1/5 309/1/5
f 314/1/5 310/1/5 313/1/5
f 315/1/5 312/1/5 311/1/5
f 316/1/5 312/1/5 315/1/5
f 321/1/5 318/1/5 317/1/5
f 322/1/5 318/1/5 321/1/5
f 323/1/5 320/1/5 319/1/5
f 324/1/5 320/1/5 323/1/5
f 329/1/5 326/1/5 325/1/5
f 330/1/5 326/1/5 329/1/5
f 331/1/5 328/1/5 327/1/5
f 332/1/5 328/1/5 331/1/5
f 337/1/5 334/1/5 333/1/5
f 338/1/5 334/1/5 337/1/5
f 339/1/5 336/1/5 335/1/5
f 340/1/5 336/1/5 339/1/5
f 341/2/6 342/2/6 345/2/6
f 345/2/6 342/2/6 346/2/6
f 343/2/6 344/2/6 347/2/6
f 347/2/6 344/2/6 348/2/6
f 349/2/6 350/2/6 353/2/6
f 353/2/6 350/2/6 354/2/6
f 351/2/6 352/2/6 355/2/6
f 355/2/6 352/2/6 356/2/6
f 357/2/6 358/2/6 361/2/6
f 361/2/6 358/2/6 362/2/6
f 359/2/6 360/2/6 363/2/6
f 363/2/6 360/2/6 364/2/6
f 365/2/6 366/2/6 369/2/6
f 369/2/6 366/2/6 370/2/6
f 367/2/6 368/2/6 371/2/6
f 371/2/6 368/2/6 372/2/6
f 373/2/6 374/2/6 377/2/6
f 377/2/6 374/2/6 378/2/6
f 375/2/6 376/2/6 379/2/6
f 379/2/6 376/2/6 380/2/6
f 381/2/6 382/2/6 385/2/6
f 385/2/6 382/2/6 386/2/6
f 383/2/6 384/2/6 387/2/6
f 387/2/6 384/2/6 388/2/6
f 389/1/6 390/1/6 391/1/6
f 391/1/6 390/1/6 392/1/6
f 393/1/6 394/1/6 395/1/6
f 395/1/6 394/1/6 396/1/6
f 397/1/6 398/1/6 399/1/6
f 399/1/6 398/1/6 400/1/6
