# MagicaVoxel @ Ephtracy

# group
o 

# material
mtllib Tree.mtl
usemtl palette

# normals
vn -1 0 0
vn 1 0 0
vn 0 0 1
vn 0 0 -1
vn 0 -1 0
vn 0 1 0

# texcoords
vt 0.396484 0.5
vt 0.771484 0.5
vt 0.841797 0.5

# verts
v -0.5 1.4 0.8
v -0.5 1.4 -0.1
v -0.5 2.1 0.3
v -0.5 2.1 0.1
v -0.5 2.3 0.3
v -0.5 2.3 0.1
v -0.5 2.5 0.8
v -0.5 2.5 -0.1
v -0.4 1.4 -0.1
v -0.4 1.4 -0.2
v -0.4 2.5 0.7
v -0.4 2.5 -0.1
v -0.4 2.5 -0.2
v -0.4 2.6 0.7
v -0.4 2.6 -0.1
v -0.3 1.3 0.6
v -0.3 1.3 -5.96046e-08
v -0.3 1.4 0.6
v -0.3 1.4 -5.96046e-08
v -0.1 0 0.4
v -0.1 0 0.2
v -0.1 1.3 0.4
v -0.1 1.3 0.2
v 0.1 0 0.4
v 0.1 0 0.2
v 0.1 1.3 0.4
v 0.1 1.3 0.2
v 0.3 1.3 0.6
v 0.3 1.3 -5.96046e-08
v 0.3 1.4 0.6
v 0.3 1.4 -5.96046e-08
v 0.4 1.4 0.8
v 0.4 1.4 0.7
v 0.4 1.4 -0.1
v 0.4 1.4 -0.2
v 0.4 2.5 0.8
v 0.4 2.5 0.7
v 0.4 2.5 -0.1
v 0.4 2.5 -0.2
v 0.4 2.6 0.7
v 0.4 2.6 -0.1
v 0.5 1.4 0.7
v 0.5 1.4 -0.1
v 0.5 2.1 0.5
v 0.5 2.1 0.3
v 0.5 2.3 0.5
v 0.5 2.3 0.3
v 0.5 2.5 0.7
v 0.5 2.5 -0.1
v -0.5 1.4 0.8
v -0.5 2.5 0.8
v -0.4 1.8 0.8
v -0.4 2 0.8
v -0.2 1.8 0.8
v -0.2 2 0.8
v 0.4 1.4 0.8
v 0.4 2.5 0.8
v -0.4 2.5 0.7
v -0.4 2.6 0.7
v 0.4 1.4 0.7
v 0.4 2.5 0.7
v 0.4 2.6 0.7
v 0.5 1.4 0.7
v 0.5 2.5 0.7
v -0.3 1.3 0.6
v -0.3 1.4 0.6
v 0.3 1.3 0.6
v 0.3 1.4 0.6
v -0.1 0 0.4
v -0.1 1.3 0.4
v 0.1 0 0.4
v 0.1 1.3 0.4
v -0.1 0 0.2
v -0.1 1.3 0.2
v 0.1 0 0.2
v 0.1 1.3 0.2
v -0.3 1.3 -5.96046e-08
v -0.3 1.4 -5.96046e-08
v 0.3 1.3 -5.96046e-08
v 0.3 1.4 -5.96046e-08
v -0.5 1.4 -0.1
v -0.5 2.5 -0.1
v -0.4 1.4 -0.1
v -0.4 2.5 -0.1
v -0.4 2.6 -0.1
v 0.4 1.4 -0.1
v 0.4 2.5 -0.1
v 0.4 2.6 -0.1
v 0.5 1.4 -0.1
v 0.5 2.5 -0.1
v -0.4 1.4 -0.2
v -0.4 2.5 -0.2
v -0.3 2.1 -0.2
v -0.3 2.3 -0.2
v -0.1 2.1 -0.2
v -0.1 2.3 -0.2
v 0.1 1.6 -0.2
v 0.1 1.8 -0.2
v 0.3 1.6 -0.2
v 0.3 1.8 -0.2
v 0.4 1.4 -0.2
v 0.4 2.5 -0.2
v -0.1 0 0.4
v 0.1 0 0.4
v -0.1 0 0.2
v 0.1 0 0.2
v -0.3 1.3 0.6
v 0.3 1.3 0.6
v -0.1 1.3 0.4
v 0.1 1.3 0.4
v -0.1 1.3 0.2
v 0.1 1.3 0.2
v -0.3 1.3 -5.96046e-08
v 0.3 1.3 -5.96046e-08
v -0.5 1.4 0.8
v 0.4 1.4 0.8
v 0.4 1.4 0.7
v 0.5 1.4 0.7
v -0.3 1.4 0.6
v 0.3 1.4 0.6
v -0.3 1.4 -5.96046e-08
v 0.3 1.4 -5.96046e-08
v -0.5 1.4 -0.1
v -0.4 1.4 -0.1
v 0.4 1.4 -0.1
v 0.5 1.4 -0.1
v -0.4 1.4 -0.2
v 0.4 1.4 -0.2
v -0.5 2.5 0.8
v 0.4 2.5 0.8
v -0.4 2.5 0.7
v 0.4 2.5 0.7
v 0.5 2.5 0.7
v -0.5 2.5 -0.1
v -0.4 2.5 -0.1
v 0.4 2.5 -0.1
v 0.5 2.5 -0.1
v -0.4 2.5 -0.2
v 0.4 2.5 -0.2
v -0.4 2.6 0.7
v 0.4 2.6 0.7
v -0.4 2.6 -0.1
v 0.4 2.6 -0.1

# faces
f 3/2/1 2/2/1 1/2/1
f 4/2/1 2/2/1 3/2/1
f 5/2/1 3/2/1 1/2/1
f 5/3/1 4/3/1 3/3/1
f 6/2/1 2/2/1 4/2/1
f 6/3/1 4/3/1 5/3/1
f 7/2/1 5/2/1 1/2/1
f 7/2/1 6/2/1 5/2/1
f 8/2/1 2/2/1 6/2/1
f 8/2/1 6/2/1 7/2/1
f 12/2/1 10/2/1 9/2/1
f 13/2/1 10/2/1 12/2/1
f 14/2/1 12/2/1 11/2/1
f 15/2/1 12/2/1 14/2/1
f 18/2/1 17/2/1 16/2/1
f 19/2/1 17/2/1 18/2/1
f 22/1/1 21/1/1 20/1/1
f 23/1/1 21/1/1 22/1/1
f 24/1/2 25/1/2 26/1/2
f 26/1/2 25/1/2 27/1/2
f 28/2/2 29/2/2 30/2/2
f 30/2/2 29/2/2 31/2/2
f 32/2/2 33/2/2 36/2/2
f 36/2/2 33/2/2 37/2/2
f 34/2/2 35/2/2 38/2/2
f 38/2/2 35/2/2 39/2/2
f 37/2/2 38/2/2 40/2/2
f 40/2/2 38/2/2 41/2/2
f 42/2/2 43/2/2 44/2/2
f 44/2/2 43/2/2 45/2/2
f 42/2/2 44/2/2 46/2/2
f 44/3/2 45/3/2 46/3/2
f 45/2/2 43/2/2 47/2/2
f 46/3/2 45/3/2 47/3/2
f 42/2/2 46/2/2 48/2/2
f 46/2/2 47/2/2 48/2/2
f 47/2/2 43/2/2 49/2/2
f 48/2/2 47/2/2 49/2/2
f 52/2/3 51/2/3 50/2/3
f 53/2/3 51/2/3 52/2/3
f 54/2/3 52/2/3 50/2/3
f 54/3/3 53/3/3 52/3/3
f 55/2/3 51/2/3 53/2/3
f 55/3/3 53/3/3 54/3/3
f 56/2/3 54/2/3 50/2/3
f 56/2/3 55/2/3 54/2/3
f 57/2/3 51/2/3 55/2/3
f 57/2/3 55/2/3 56/2/3
f 61/2/3 59/2/3 58/2/3
f 62/2/3 59/2/3 61/2/3
f 63/2/3 61/2/3 60/2/3
f 64/2/3 61/2/3 63/2/3
f 67/2/3 66/2/3 65/2/3
f 68/2/3 66/2/3 67/2/3
f 71/1/3 70/1/3 69/1/3
f 72/1/3 70/1/3 71/1/3
f 73/1/4 74/1/4 75/1/4
f 75/1/4 74/1/4 76/1/4
f 77/2/4 78/2/4 79/2/4
f 79/2/4 78/2/4 80/2/4
f 81/2/4 82/2/4 83/2/4
f 83/2/4 82/2/4 84/2/4
f 84/2/4 85/2/4 87/2/4
f 87/2/4 85/2/4 88/2/4
f 86/2/4 87/2/4 89/2/4
f 89/2/4 87/2/4 90/2/4
f 91/2/4 92/2/4 93/2/4
f 93/2/4 92/2/4 94/2/4
f 91/2/4 93/2/4 95/2/4
f 93/3/4 94/3/4 95/3/4
f 94/2/4 92/2/4 96/2/4
f 95/3/4 94/3/4 96/3/4
f 91/2/4 95/2/4 97/2/4
f 95/2/4 96/2/4 97/2/4
f 97/2/4 96/2/4 98/2/4
f 91/2/4 97/2/4 99/2/4
f 97/3/4 98/3/4 99/3/4
f 98/2/4 96/2/4 100/2/4
f 99/3/4 98/3/4 100/3/4
f 91/2/4 99/2/4 101/2/4
f 99/2/4 100/2/4 101/2/4
f 96/2/4 92/2/4 102/2/4
f 101/2/4 100/2/4 102/2/4
f 100/2/4 96/2/4 102/2/4
f 105/1/5 104/1/5 103/1/5
f 106/1/5 104/1/5 105/1/5
f 109/2/5 108/2/5 107/2/5
f 110/2/5 108/2/5 109/2/5
f 111/2/5 109/2/5 107/2/5
f 112/2/5 108/2/5 110/2/5
f 113/2/5 111/2/5 107/2/5
f 113/2/5 112/2/5 111/2/5
f 114/2/5 108/2/5 112/2/5
f 114/2/5 112/2/5 113/2/5
f 117/2/5 116/2/5 115/2/5
f 119/2/5 117/2/5 115/2/5
f 119/2/5 118/2/5 117/2/5
f 120/2/5 118/2/5 119/2/5
f 121/2/5 119/2/5 115/2/5
f 122/2/5 118/2/5 120/2/5
f 123/2/5 121/2/5 115/2/5
f 123/2/5 122/2/5 121/2/5
f 124/2/5 122/2/5 123/2/5
f 125/2/5 118/2/5 122/2/5
f 125/2/5 122/2/5 124/2/5
f 126/2/5 118/2/5 125/2/5
f 127/2/5 125/2/5 124/2/5
f 128/2/5 125/2/5 127/2/5
f 129/2/6 130/2/6 131/2/6
f 131/2/6 130/2/6 132/2/6
f 129/2/6 131/2/6 134/2/6
f 134/2/6 131/2/6 135/2/6
f 132/2/6 133/2/6 136/2/6
f 136/2/6 133/2/6 137/2/6
f 135/2/6 136/2/6 138/2/6
f 138/2/6 136/2/6 139/2/6
f 140/2/6 141/2/6 142/2/6
f 142/2/6 141/2/6 143/2/6
